<?xml version="1.0" standalone="no"?>
<!DOCTYPE svg PUBLIC "-//W3C//DTD SVG 20010904//EN"
 "http://www.w3.org/TR/2001/REC-SVG-20010904/DTD/svg10.dtd">
<svg version="1.0" xmlns="http://www.w3.org/2000/svg"
 width="1024.000000pt" height="1024.000000pt" viewBox="0 0 1024.000000 1024.000000"
 preserveAspectRatio="xMidYMid meet">
<metadata>
Created by potrace 1.16, written by Peter Selinger 2001-2019
</metadata>
<g transform="translate(0.000000,1024.000000) scale(0.100000,-0.100000)"
fill="#000000" stroke="none">
<path d="M0 5120 l0 -5120 5120 0 5120 0 0 5120 0 5120 -5120 0 -5120 0 0
-5120z m3893 2293 c198 -59 435 -242 680 -525 l58 -66 71 24 c238 81 584 83
818 5 l84 -29 41 47 c167 192 217 242 238 236 15 -4 18 -3 9 3 -33 22 237 219
381 277 114 47 217 62 320 46 147 -23 232 -67 306 -161 95 -120 122 -321 65
-491 -15 -46 -14 -47 10 -74 38 -41 49 -84 34 -130 -28 -83 -127 -98 -175 -26
-33 49 -29 86 17 161 22 36 40 75 40 87 0 31 -29 102 -57 140 -27 38 -30 51
-5 32 15 -13 16 -12 3 4 -8 9 -16 15 -18 13 -3 -3 -27 13 -55 34 -84 67 -149
70 -231 10 -83 -61 -131 -135 -180 -275 l-34 -100 -6 -305 c-6 -311 -16 -412
-57 -605 -57 -264 -199 -537 -393 -755 -103 -116 -213 -214 -229 -204 -6 4 -8
3 -4 -4 21 -34 -349 -251 -459 -269 -65 -10 -248 61 -394 154 -155 99 -384
314 -499 471 -96 130 -181 291 -234 441 -22 65 -68 249 -67 271 0 8 13 -34 29
-95 16 -60 43 -149 60 -197 28 -78 33 -86 47 -73 19 20 49 19 57 -1 5 -13 3
-14 -6 -7 -8 7 -22 7 -36 2 -25 -10 -24 -25 5 -83 12 -23 17 -26 25 -15 7 10
8 8 5 -8 -3 -16 0 -23 9 -23 8 0 14 3 14 8 0 4 10 13 21 21 19 11 21 11 16 -2
-4 -12 1 -15 28 -13 19 2 32 -1 29 -5 -3 -5 -12 -9 -21 -9 -9 0 -13 -6 -9 -15
3 -8 1 -15 -5 -15 -6 0 -7 -4 -4 -10 3 -5 1 -10 -4 -10 -6 0 -11 -5 -11 -11 0
-6 9 -8 20 -4 13 4 22 1 26 -9 3 -9 11 -16 16 -16 6 0 8 7 4 15 -3 8 -1 15 4
15 12 0 13 -57 2 -64 -4 -2 -14 9 -21 25 -16 36 -30 38 -32 4 -1 -14 -2 -29
-3 -35 -1 -5 2 -9 5 -7 3 1 13 -4 22 -12 11 -9 17 -10 17 -2 0 6 5 11 11 11 8
0 8 -4 2 -12 -19 -24 -10 -53 32 -108 45 -58 85 -98 85 -85 0 4 7 2 16 -6 13
-11 14 -9 9 17 -6 28 -6 28 9 10 24 -29 27 -16 6 24 -13 23 -19 29 -20 17 0
-10 -4 -15 -10 -12 -18 11 -11 24 15 31 24 6 24 7 8 20 -10 7 -13 13 -8 13 6
0 18 -6 28 -13 15 -12 16 -14 2 -20 -22 -8 -18 -25 9 -36 32 -12 40 -28 25
-46 -10 -13 -10 -17 2 -25 9 -5 10 -9 2 -9 -6 0 -15 5 -18 10 -10 16 -25 12
-25 -7 0 -14 -4 -12 -25 7 -14 13 -25 19 -25 13 0 -5 9 -18 20 -28 17 -15 22
-16 37 -4 9 8 14 9 10 2 -4 -6 -3 -14 2 -18 6 -3 7 -13 4 -22 -5 -13 -2 -15
11 -10 9 4 15 3 12 -2 -3 -4 7 -19 21 -32 l27 -24 -15 25 c-16 26 -14 60 2 60
6 0 9 -10 7 -22 -2 -14 2 -22 9 -21 9 2 10 -4 3 -21 -7 -19 -4 -28 14 -45 28
-27 45 -28 21 -1 -10 11 -13 20 -7 20 6 0 12 -6 15 -12 3 -10 7 -10 20 0 13
11 17 10 25 -5 9 -16 11 -15 17 8 4 15 14 25 26 26 18 2 19 0 7 -14 -11 -14
-10 -16 15 -11 27 5 39 -6 15 -15 -7 -2 13 -5 45 -5 32 -1 57 2 57 8 0 6 -7
10 -15 10 -8 0 -15 5 -15 10 0 15 16 12 31 -6 7 -9 22 -14 36 -11 13 2 26 0
29 -4 5 -8 -4 -11 -49 -13 -10 -1 -22 -8 -27 -16 -7 -11 -12 -11 -23 -2 -8 7
-32 14 -53 16 -21 2 -48 8 -59 12 -18 7 -18 6 -6 -9 7 -9 10 -17 5 -17 -5 0
-2 -4 6 -10 9 -5 19 -5 26 1 8 6 21 5 38 -2 29 -14 35 -29 10 -29 -8 0 -12 5
-9 10 10 16 -42 12 -58 -4 -16 -17 -39 -2 -31 19 3 7 0 16 -7 21 -9 5 -10 2
-6 -9 4 -11 2 -14 -7 -11 -8 3 -12 14 -9 25 6 23 -12 26 -21 3 -4 -10 -2 -13
6 -8 6 4 8 3 5 -3 -4 -6 8 -22 26 -35 53 -40 56 -41 66 -16 10 23 10 23 10 1
1 -12 -4 -23 -11 -25 -11 -4 127 -98 143 -98 5 0 6 7 3 15 -4 8 -9 13 -13 10
-14 -8 -49 24 -53 50 -4 17 -1 25 9 25 10 0 13 -6 9 -16 -6 -16 15 -44 33 -44
5 0 14 -7 19 -17 10 -17 42 -12 42 8 0 6 -7 8 -16 5 -11 -4 -8 2 7 18 25 25
41 27 20 2 -9 -11 -8 -15 5 -20 9 -4 19 -4 22 -1 3 3 0 5 -7 5 -7 0 -9 5 -6
11 5 6 13 2 22 -11 14 -20 14 -24 -6 -51 l-22 -29 28 -11 c15 -6 63 -22 105
-36 69 -23 83 -25 118 -14 43 13 49 26 26 56 -10 15 -17 17 -27 8 -16 -12 -60
-7 -70 9 -4 6 -12 8 -18 4 -7 -5 -8 -1 -4 10 5 13 3 15 -7 9 -9 -6 -11 -4 -6
4 6 9 12 9 24 -2 10 -8 23 -12 31 -9 8 2 11 0 8 -5 -9 -15 37 -9 63 8 31 20
77 32 83 22 3 -5 -6 -9 -20 -10 -14 0 -28 -5 -32 -11 -3 -5 -13 -12 -21 -15
-12 -4 -11 -6 3 -6 9 -1 17 -8 17 -16 0 -8 6 -15 13 -15 8 0 7 -4 -3 -10 -8
-5 -10 -10 -5 -10 12 0 44 20 32 20 -5 0 -5 5 -1 11 5 8 9 8 14 -1 6 -9 13 -9
29 -1 29 16 19 30 -16 23 -16 -3 -24 -1 -20 4 5 5 13 10 18 10 5 1 11 2 14 3
3 0 -1 14 -10 31 -18 34 -19 44 -5 35 6 -4 18 -24 27 -46 8 -21 20 -39 27 -39
17 0 69 37 59 42 -4 3 -2 3 5 1 23 -5 52 16 46 35 -5 14 -4 15 5 2 9 -13 12
-13 27 2 17 16 17 18 0 24 -15 6 -16 8 -1 24 19 21 62 16 44 -6 -6 -7 -18 -10
-27 -7 -14 4 -14 3 -3 -5 11 -8 26 -3 58 19 44 31 53 41 31 37 -7 -2 -12 5
-10 15 2 10 -3 17 -12 17 -19 0 -30 -17 -16 -25 19 -12 2 -20 -39 -19 -31 0
-40 -3 -37 -13 3 -7 1 -13 -3 -13 -15 0 -22 32 -10 46 6 8 8 14 3 14 -5 0 -2
5 6 10 10 6 11 10 3 10 -20 0 -28 -4 -25 -12 1 -5 -2 -8 -8 -8 -5 0 -10 5 -10
11 0 6 -8 9 -18 7 -11 -3 -24 4 -35 19 -10 12 -16 23 -13 23 2 0 11 3 19 6 9
3 17 -3 21 -18 5 -18 8 -20 15 -9 5 8 14 10 22 6 9 -6 11 -3 6 8 -5 13 -1 17
15 17 26 0 19 9 -10 15 -12 2 -24 -1 -28 -6 -4 -6 -11 -6 -20 2 -10 8 -17 7
-29 -5 -21 -20 -45 -10 -39 17 2 12 8 23 13 25 6 2 7 10 4 19 -5 12 -1 14 17
8 16 -5 21 -4 18 6 -3 8 -13 13 -22 12 -12 -1 -15 4 -11 14 4 13 3 14 -10 3
-8 -7 -12 -16 -9 -21 6 -11 1 -11 -20 -3 -9 3 -16 13 -16 21 0 12 -3 13 -13 4
-8 -6 -17 -8 -20 -4 -4 3 -7 -1 -7 -10 0 -10 -4 -17 -9 -17 -5 0 -8 12 -8 26
0 17 4 24 13 20 7 -3 20 1 28 9 13 13 17 13 30 -1 9 -9 16 -11 16 -4 0 6 5 8
10 5 6 -3 10 -2 10 4 0 5 -6 12 -12 15 -7 4 -3 4 10 2 12 -2 22 -1 22 4 0 20
33 18 50 -2 l18 -23 11 28 c9 24 21 32 44 28 4 0 7 3 7 9 0 5 -5 10 -11 10 -5
0 -8 4 -4 10 3 5 11 8 18 6 7 -1 9 -1 4 1 -4 3 -5 9 -1 14 3 5 -23 -6 -58 -25
-117 -65 -307 -93 -449 -66 -67 13 -147 44 -221 87 -54 32 -76 38 -70 21 1 -5
-10 -8 -24 -8 -26 0 -26 -1 -10 -25 15 -23 15 -25 1 -25 -9 0 -14 4 -10 9 3 6
-4 15 -15 21 -11 6 -20 18 -20 28 0 14 2 15 10 2 5 -8 12 -11 16 -7 9 9 -16
38 -27 31 -5 -3 -9 2 -9 10 0 10 9 16 26 16 14 0 23 -4 19 -10 -3 -5 2 -10 11
-10 16 0 16 1 -1 20 -10 11 -22 17 -27 14 -4 -3 -7 -1 -6 3 2 5 -37 52 -86
104 -49 52 -84 85 -78 73 6 -11 18 -27 27 -34 20 -17 42 -56 26 -46 -6 4 -11
2 -11 -4 0 -6 -5 -8 -11 -4 -8 4 -7 9 2 15 10 6 8 9 -9 9 -19 0 -22 -4 -17
-20 5 -14 2 -20 -9 -20 -9 0 -16 5 -16 11 0 19 21 50 30 44 6 -3 7 1 4 10 -9
24 -28 13 -38 -23 -9 -31 -29 -42 -41 -22 -3 6 0 10 8 10 7 0 20 15 28 33 18
41 19 83 0 79 -7 -1 -19 5 -27 15 -21 28 -16 41 6 14 24 -28 26 -20 4 14 -9
14 -20 22 -25 19 -16 -10 -9 29 9 49 9 11 11 17 5 13 -8 -4 -13 -2 -13 4 0 7
7 10 15 7 8 -4 17 -2 20 3 3 5 -9 11 -27 13 l-33 4 31 1 c22 1 49 -9 84 -33
55 -37 69 -43 52 -22 -8 10 -6 13 9 14 20 2 26 -12 9 -22 -12 -7 -4 -25 11
-25 6 0 8 4 5 9 -4 5 3 7 13 4 13 -3 21 2 26 16 3 12 11 18 17 15 6 -4 5 -10
-3 -15 -8 -5 -10 -9 -6 -9 4 0 2 -6 -5 -14 -7 -7 -20 -11 -28 -9 -8 3 3 -6 25
-21 48 -31 55 -32 55 -7 0 11 8 22 18 24 9 3 2 5 -15 6 -18 0 -33 4 -33 9 1
12 30 47 30 35 0 -7 9 -14 19 -18 22 -7 22 -32 1 -45 -21 -13 -9 -18 27 -13
18 3 30 9 27 15 -3 5 -3 21 1 35 5 20 9 23 18 14 9 -9 8 -14 -3 -22 -13 -9
-12 -10 3 -5 18 6 24 -9 7 -19 -8 -5 -7 -12 2 -23 10 -12 10 -16 0 -19 -6 -3
-10 -9 -6 -14 6 -10 -9 -12 -19 -2 -4 3 1 12 11 19 16 12 16 13 0 14 -9 0 -20
-4 -23 -10 -3 -5 -11 -10 -16 -10 -6 0 -7 5 -3 12 5 8 2 9 -10 5 -10 -4 -23
-7 -29 -7 -7 -1 14 -12 46 -26 32 -13 62 -22 67 -19 4 3 10 1 12 -4 1 -6 14
-12 28 -15 14 -3 49 -12 79 -21 69 -19 217 -39 236 -31 8 3 15 11 14 18 0 10
-2 10 -6 1 -5 -14 -96 -7 -101 8 -2 5 -8 9 -13 9 -6 0 -8 -4 -5 -8 2 -4 -11
-6 -30 -4 -33 4 -47 25 -21 35 6 3 1 6 -13 7 -23 1 -23 2 -7 11 15 9 23 7 37
-9 22 -23 40 -23 64 0 12 12 13 19 4 24 -6 4 -19 -2 -29 -14 -13 -17 -18 -19
-22 -8 -3 8 -1 17 6 20 7 2 3 4 -8 3 -11 -1 -21 3 -22 8 -2 6 7 10 19 10 12 0
23 6 26 13 2 7 -2 11 -10 10 -7 -2 -13 3 -13 11 0 8 10 16 23 17 14 3 22 -1
22 -11 0 -8 5 -15 11 -15 6 0 9 7 5 15 -3 8 -1 15 5 15 6 0 7 5 4 10 -3 6 -2
10 4 10 5 0 9 -12 8 -27 -2 -33 29 -45 40 -16 4 10 13 23 21 29 9 6 12 16 7
23 -5 9 -11 6 -19 -9 -12 -25 -28 -29 -35 -9 -2 7 1 9 8 5 6 -4 11 -2 11 3 0
14 -47 14 -55 1 -13 -22 -23 -9 -15 20 9 32 -6 53 -21 29 -5 -8 -9 -10 -9 -5
0 6 -5 5 -12 -2 -9 -9 -9 -15 0 -24 9 -9 12 -9 12 0 0 7 5 12 11 12 20 0 4
-33 -20 -41 -19 -8 -22 -6 -17 7 6 16 -7 32 -48 55 -13 8 -17 8 -12 0 4 -6 3
-11 -3 -11 -24 0 -19 20 6 26 40 10 58 25 41 35 -19 12 -28 11 -26 -3 2 -9 -6
-12 -22 -9 -14 3 -34 5 -45 5 -26 1 -28 43 -3 57 14 8 16 7 12 -6 -3 -8 -11
-12 -16 -9 -6 4 -9 1 -7 -5 3 -7 8 -12 13 -11 5 1 12 -3 16 -10 5 -8 14 -8 35
0 16 6 34 9 42 6 19 -8 16 4 -4 20 -16 12 -14 14 20 10 20 -2 37 -1 37 1 0 16
-50 54 -66 51 -16 -4 -15 -7 9 -16 15 -6 27 -17 27 -24 0 -10 -2 -10 -9 1 -6
10 -13 11 -29 2 -11 -6 -23 -7 -26 -3 -8 14 26 73 40 68 21 -8 26 11 8 28 -14
15 -13 16 8 17 13 1 30 2 38 3 20 2 50 -12 50 -24 0 -6 -5 -10 -11 -10 -5 0
-8 4 -4 10 3 5 -7 8 -25 7 -20 -1 -29 -6 -25 -15 3 -8 5 -19 5 -25 0 -8 4 -7
12 1 14 14 32 16 23 3 -3 -5 -1 -13 5 -16 8 -5 7 -11 -1 -21 -10 -12 -9 -13 5
-8 9 3 16 12 16 19 0 7 7 18 15 25 18 15 20 0 3 -20 -7 -7 -1 -5 14 6 30 21
37 37 13 28 -8 -4 -15 -1 -15 6 0 6 -4 9 -8 6 -4 -2 -9 4 -9 15 -2 23 4 24 24
4 18 -18 33 -11 33 16 0 21 -16 26 -23 7 -4 -10 -8 -9 -16 2 -9 13 -12 13 -20
1 -5 -7 -14 -10 -20 -7 -15 10 -14 29 2 20 6 -4 0 4 -15 18 -19 19 -25 32 -21
49 5 17 3 21 -9 16 -30 -11 -25 4 14 43 l39 40 -31 18 c-16 10 -28 21 -25 24
3 2 -6 11 -20 18 -25 13 -34 30 -15 30 5 0 7 7 4 15 -4 8 -1 15 4 15 6 0 12
-10 14 -22 2 -13 11 -24 21 -26 16 -3 17 -1 5 18 -10 18 -10 24 0 27 24 9 11
23 -15 17 -33 -8 -55 -23 -48 -34 9 -15 -24 -19 -36 -4 -10 12 -9 13 5 8 10
-4 16 -1 16 8 0 23 36 48 50 35 10 -9 14 -9 17 0 3 9 10 10 24 3 10 -6 19 -7
19 -3 0 4 11 8 25 8 15 0 25 -6 25 -14 0 -8 3 -12 6 -8 3 3 3 15 -1 27 -5 14
-10 18 -18 12 -7 -5 -39 -9 -72 -7 -35 1 -63 -2 -68 -9 -4 -6 -5 6 -1 27 4 23
2 37 -4 37 -6 0 -17 3 -25 6 -8 3 -17 -1 -20 -9 -4 -10 0 -13 13 -10 10 3 21
0 25 -7 12 -19 -3 -24 -31 -11 -19 8 -24 16 -19 29 9 20 9 46 0 81 -5 21 -4
23 9 12 19 -16 20 -12 6 24 -5 14 -14 23 -20 20 -5 -3 -19 -1 -30 5 -14 8 -20
8 -20 0 0 -16 -30 -44 -38 -36 -3 4 -1 11 7 15 7 5 11 19 9 31 -1 13 3 25 10
27 7 3 10 -1 7 -9 -4 -10 4 -14 26 -16 19 -2 29 2 27 9 -2 6 -8 10 -13 10 -6
0 -17 7 -26 15 -9 8 -24 12 -34 8 -16 -7 -17 -3 -12 32 5 34 4 37 -7 22 -7
-10 -17 -18 -21 -18 -5 0 -5 3 -2 6 3 4 2 15 -3 25 -13 23 5 36 25 19 12 -10
15 -9 15 9 0 12 5 19 10 16 6 -3 10 -1 10 4 0 6 -7 11 -15 11 -22 0 -18 18 5
25 11 3 20 11 20 16 0 13 -14 11 -29 -3 -10 -11 -14 -10 -22 4 -6 10 -18 15
-32 13 -21 -4 -21 -4 -3 10 25 19 36 19 36 0 0 -8 5 -15 11 -15 7 0 9 10 5 26
-4 16 -2 32 6 42 11 13 10 15 -14 10 -23 -4 -30 0 -42 23 -15 29 -9 38 11 18
6 -6 21 -8 33 -4 27 9 23 12 -20 20 -33 5 -60 27 -60 48 0 5 7 4 15 -3 11 -9
15 -9 15 -1 0 7 5 9 10 6 6 -3 10 -4 10 0 0 13 -46 22 -59 11 -12 -9 -13 -7
-7 8 5 14 0 26 -20 42 l-26 23 26 7 c16 4 32 1 42 -6 11 -10 18 -10 26 -2 9 9
6 12 -12 12 -48 0 -12 12 72 24 10 1 21 6 25 11 13 13 -70 -3 -159 -31 l-82
-26 -19 23 c-10 13 -67 77 -125 142 -222 245 -449 402 -635 438 -78 15 -195
13 -268 -6 -103 -27 -220 -99 -203 -127 4 -6 3 -8 -4 -4 -13 8 -45 -36 -80
-111 -24 -54 -26 -68 -27 -193 0 -110 4 -144 19 -183 l19 -48 -22 -27 c-60
-75 -65 -142 -14 -182 14 -11 21 -20 16 -20 -20 0 -55 50 -60 87 -4 32 1 47
31 91 l36 54 -21 61 c-31 88 -30 237 0 327 57 167 168 262 343 295 84 16 204
11 281 -12z m-224 -34 c-24 -15 -30 -10 -11 9 9 10 19 14 21 9 2 -5 -3 -13
-10 -18z m131 6 c0 -9 -52 -11 -57 -2 -3 5 -1 7 5 3 6 -3 13 -2 17 3 5 9 35 5
35 -4z m60 5 c13 -8 13 -10 -2 -10 -9 0 -20 5 -23 10 -8 13 5 13 25 0z m-136
-86 c3 -8 2 -12 -4 -9 -6 3 -10 10 -10 16 0 14 7 11 14 -7z m-355 -73 c-15 -5
-22 6 -14 19 6 9 10 9 16 -1 5 -8 4 -15 -2 -18z m325 -173 c54 -27 116 -95
155 -168 18 -34 31 -63 29 -65 -2 -2 -18 25 -37 61 -63 122 -188 206 -271 184
-123 -33 -259 -254 -206 -335 9 -14 23 -37 32 -52 l16 -28 -21 25 c-41 48 -53
81 -47 123 13 78 84 193 148 238 71 51 125 56 202 17z m836 -200 c0 -18 -2
-20 -9 -8 -6 8 -7 18 -5 22 9 14 14 9 14 -14z m108 -58 c13 0 12 -3 -6 -15
-19 -14 -24 -14 -49 0 -23 13 -24 15 -5 10 13 -4 22 -2 22 4 0 6 -4 11 -10 11
-5 0 -10 5 -10 12 0 6 -8 21 -17 32 -9 12 0 4 21 -16 20 -21 45 -38 54 -38z
m-738 -25 c0 -5 -5 -3 -10 5 -5 8 -10 20 -10 25 0 6 5 3 10 -5 5 -8 10 -19 10
-25z m643 20 c4 -8 2 -17 -3 -20 -6 -4 -10 3 -10 14 0 25 6 27 13 6z m156 -4
c11 -7 10 -12 -8 -22 -11 -8 -21 -21 -21 -29 -1 -11 -4 -10 -15 4 -8 11 -15
25 -15 30 0 6 5 4 10 -4 8 -13 12 -13 27 3 17 17 17 18 1 11 -11 -3 -18 -1
-18 5 0 13 20 14 39 2z m-775 -91 c4 -24 3 -28 -2 -15 -14 31 -24 83 -13 65 5
-8 11 -31 15 -50z m804 15 c-11 -11 -37 7 -31 22 5 13 8 13 21 -1 9 -9 13 -18
10 -21z m-82 -13 c-4 -3 -11 0 -17 8 -7 13 -10 13 -18 1 -5 -7 -14 -10 -21 -6
-8 5 -4 11 12 19 18 9 26 9 37 -2 7 -7 10 -16 7 -20z m4 -53 c0 -6 -4 -7 -10
-4 -5 3 -10 11 -10 16 0 6 5 7 10 4 6 -3 10 -11 10 -16z m-713 -11 c-3 -8 -6
-5 -6 6 -1 11 2 17 5 13 3 -3 4 -12 1 -19z m833 12 c0 -5 -4 -10 -9 -10 -6 0
-13 5 -16 10 -3 6 1 10 9 10 9 0 16 -4 16 -10z m-823 -407 c-1 -71 -3 -13 -3
127 0 140 2 198 3 128 2 -71 2 -185 0 -255z m866 357 c-4 -4 -20 -10 -36 -14
-26 -6 -27 -6 -10 12 10 10 26 16 36 14 10 -3 15 -8 10 -12z m-1403 -45 c-14
-26 -66 -55 -97 -55 -10 1 -1 7 20 14 45 16 77 43 77 64 0 9 3 12 7 9 3 -4 0
-18 -7 -32z m1405 -35 c3 -5 1 -10 -4 -10 -6 0 -11 5 -11 10 0 6 2 10 4 10 3
0 8 -4 11 -10z m11 -29 c-9 -14 -46 -20 -46 -7 0 6 11 13 26 14 14 1 23 -2 20
-7z m-275 -114 c-10 -9 -11 -8 -5 6 3 10 9 15 12 12 3 -3 0 -11 -7 -18z m269
13 c0 -5 -2 -10 -4 -10 -3 0 -8 5 -11 10 -3 6 -1 10 4 10 6 0 11 -4 11 -10z
m-29 -13 c-1 -12 -15 -9 -19 4 -3 6 1 10 8 8 6 -3 11 -8 11 -12z m-36 -7 c8
-13 -5 -13 -25 0 -13 8 -13 10 2 10 9 0 20 -4 23 -10z m73 -45 c-3 -3 -9 2
-12 12 -6 14 -5 15 5 6 7 -7 10 -15 7 -18z m-88 10 c0 -1 -10 -10 -22 -21 -14
-12 -18 -13 -10 -3 6 9 10 18 7 21 -3 2 2 5 10 5 8 0 15 -1 15 -2z m-143 -20
c0 -8 -4 -15 -9 -15 -4 0 -8 7 -8 15 0 8 4 15 8 15 5 0 9 -7 9 -15z m-42 -5
c3 -5 1 -10 -4 -10 -6 0 -11 5 -11 10 0 6 2 10 4 10 3 0 8 -4 11 -10z m86 -17
c6 -17 4 -20 -12 -16 -11 3 -19 14 -19 25 0 25 21 19 31 -9z m139 -8 c0 -5 -5
-3 -10 5 -5 8 -10 20 -10 25 0 6 5 3 10 -5 5 -8 10 -19 10 -25z m-260 15 c0
-5 -7 -10 -16 -10 -8 0 -12 5 -9 10 3 6 10 10 16 10 5 0 9 -4 9 -10z m230 0
c0 -5 -4 -10 -10 -10 -5 0 -10 5 -10 10 0 6 5 10 10 10 6 0 10 -4 10 -10z
m160 -27 c0 -22 -2 -25 -10 -13 -13 20 -13 40 0 40 6 0 10 -12 10 -27z m-330
-17 c36 -15 71 -30 79 -33 11 -5 13 -2 8 11 -4 11 -3 15 4 11 6 -4 8 -13 6
-19 -5 -13 45 -49 57 -41 3 3 4 2 2 -1 -2 -3 14 -22 37 -42 23 -20 57 -51 75
-69 19 -19 38 -30 47 -27 8 4 15 1 15 -6 0 -6 -4 -8 -10 -5 -5 3 -10 2 -10 -4
0 -5 5 -13 10 -16 17 -10 50 -82 42 -90 -4 -5 -1 -4 7 0 11 6 13 4 8 -9 -5
-11 -3 -15 5 -10 8 5 9 2 5 -10 -5 -13 -1 -19 13 -23 11 -3 20 -10 20 -17 0
-6 4 -5 9 3 9 14 31 7 31 -10 0 -6 -4 -7 -10 -4 -5 3 -10 2 -10 -4 0 -6 -6 -8
-14 -5 -16 6 -46 -8 -71 -32 -15 -15 -16 -14 -10 9 4 15 2 28 -6 32 -8 5 -10
4 -5 -3 4 -7 2 -12 -3 -12 -10 0 -16 21 -12 43 1 10 -1 9 -45 -9 -54 -23 -206
-29 -271 -11 -29 8 -53 10 -53 6 0 -5 -5 -9 -11 -9 -6 0 -9 5 -7 12 3 7 -22
28 -54 48 -133 81 -189 155 -190 250 0 40 5 49 42 82 23 20 51 39 63 42 50 11
144 -2 207 -28z m210 3 c0 -5 -4 -8 -9 -5 -5 4 -12 0 -14 -6 -3 -8 -6 -6 -6 5
-1 9 6 17 14 17 8 0 15 -5 15 -11z m-30 -54 c0 -5 -5 -3 -10 5 -5 8 -10 20
-10 25 0 6 5 3 10 -5 5 -8 10 -19 10 -25z m48 14 c-2 -6 -8 -10 -13 -10 -5 0
-11 4 -13 10 -2 6 4 11 13 11 9 0 15 -5 13 -11z m-88 -9 c0 -5 -2 -10 -4 -10
-3 0 -8 5 -11 10 -3 6 -1 10 4 10 6 0 11 -4 11 -10z m190 -5 c-7 -8 -16 -12
-21 -9 -13 8 -1 24 18 24 13 0 13 -3 3 -15z m2292 -60 c148 -50 250 -139 318
-277 65 -133 74 -257 29 -403 -44 -143 -185 -292 -326 -345 -124 -46 -324 -45
-428 4 -69 32 -137 84 -129 98 4 6 3 8 -4 5 -14 -9 -90 77 -124 140 -65 119
-79 301 -33 438 27 81 70 159 84 151 5 -3 17 4 27 17 l19 22 -22 -19 c-13 -11
-23 -14 -23 -8 0 21 122 120 186 152 128 63 290 72 426 25z m-2292 10 c7 -8
18 -15 26 -15 7 0 16 -5 20 -11 4 -7 -2 -10 -17 -8 -13 2 -29 1 -34 -3 -6 -4
-26 -3 -45 2 l-35 8 38 1 c42 1 52 21 10 21 -22 0 -25 2 -13 10 21 14 36 12
50 -5z m-947 -200 c4 -63 3 -77 -3 -45 -9 45 -13 147 -6 139 2 -2 6 -44 9 -94z
m1002 65 c3 -5 11 -7 18 -4 18 7 67 -34 61 -50 -3 -8 -1 -17 5 -21 6 -3 11 -1
11 6 0 7 3 10 6 6 4 -3 -4 -19 -16 -34 -21 -26 -22 -27 -15 -4 5 16 4 21 -4
17 -7 -5 -11 1 -11 15 0 18 -3 20 -12 11 -9 -9 -10 -17 -2 -30 9 -13 8 -21 -3
-31 -13 -12 -16 -12 -24 0 -5 8 -9 19 -9 24 0 6 5 3 10 -5 8 -12 10 -10 10 9
0 18 -4 22 -20 18 -11 -3 -20 -4 -20 -2 0 2 -3 10 -6 18 -6 16 11 18 32 4 7
-4 15 0 18 9 8 20 -4 41 -13 25 -5 -8 -13 -5 -26 9 -10 11 -13 20 -7 20 6 0
13 -4 17 -10z m-615 -110 c0 -5 -2 -10 -4 -10 -3 0 -8 5 -11 10 -3 6 -1 10 4
10 6 0 11 -4 11 -10z m110 -50 c0 -5 -5 -10 -11 -10 -5 0 -7 5 -4 10 3 6 8 10
11 10 2 0 4 -4 4 -10z m408 -16 c-1 -5 -10 -9 -18 -9 -8 0 -14 -4 -13 -10 0
-5 -5 -16 -13 -23 -26 -23 -15 8 12 35 23 23 41 27 32 7z m-338 -14 c0 -5 -2
-10 -4 -10 -3 0 -8 5 -11 10 -3 6 -1 10 4 10 6 0 11 -4 11 -10z m-90 -15 c7
-9 8 -15 2 -15 -5 0 -12 7 -16 15 -3 8 -4 15 -2 15 2 0 9 -7 16 -15z m226 0
c-3 -9 0 -15 9 -15 9 0 12 6 9 15 -5 11 0 15 17 14 13 0 18 -3 12 -6 -16 -6
-17 -35 -2 -50 6 -6 9 -17 6 -25 -3 -8 -9 -3 -17 15 -8 15 -19 26 -25 23 -11
-4 -45 26 -45 39 0 3 9 5 21 5 15 0 19 -5 15 -15z m117 -43 c-4 -17 -2 -23 5
-18 7 4 14 -3 18 -19 3 -14 10 -25 15 -25 17 0 9 -23 -17 -47 -26 -24 -44 -23
-44 3 0 8 -4 12 -10 9 -5 -3 -10 2 -10 12 1 16 3 15 19 -4 21 -25 31 -29 31
-13 0 13 -37 45 -53 45 -15 0 -16 27 0 32 6 2 14 -5 18 -16 3 -12 13 -21 21
-21 8 0 14 -7 14 -15 0 -8 4 -15 8 -15 16 0 0 59 -16 62 -12 2 -17 16 -18 47
-1 40 0 43 12 26 8 -11 11 -29 7 -43z m112 30 c-8 -8 -25 10 -19 20 4 6 9 5
15 -3 4 -7 6 -15 4 -17z m-301 9 c3 -5 -1 -11 -9 -14 -9 -4 -12 -1 -8 9 6 16
10 17 17 5z m416 -1 c0 -5 -7 -10 -16 -10 -10 0 -14 -6 -10 -15 3 -9 0 -15
-10 -15 -8 0 -17 -7 -20 -15 -9 -21 -41 -19 -54 4 -13 25 -13 42 1 19 13 -22
39 -23 39 -2 0 11 5 14 16 10 11 -4 15 -2 11 8 -5 13 5 20 36 25 4 0 7 -3 7
-9z m58 -12 c5 -24 -20 -23 -35 1 -10 16 -8 18 10 17 12 -1 23 -9 25 -18z
m-198 -23 c0 -5 -5 -3 -10 5 -5 8 -10 20 -10 25 0 6 5 3 10 -5 5 -8 10 -19 10
-25z m-319 8 c13 -16 12 -17 -3 -4 -10 7 -18 15 -18 17 0 8 8 3 21 -13z m479
8 c0 -6 -4 -13 -10 -16 -5 -3 -10 1 -10 9 0 9 5 16 10 16 6 0 10 -4 10 -9z
m-180 -21 c0 -5 -2 -10 -4 -10 -3 0 -8 5 -11 10 -3 6 -1 10 4 10 6 0 11 -4 11
-10z m-8 -28 c-7 -2 -9 -9 -6 -14 4 -7 2 -8 -4 -4 -19 12 -15 36 5 29 11 -4
13 -8 5 -11z m134 -17 c-13 -13 -46 -16 -46 -3 0 4 6 8 14 8 8 0 17 8 20 17 6
14 9 15 16 4 5 -9 4 -19 -4 -26z m-601 7 c-3 -3 -11 0 -18 7 -9 10 -8 11 6 5
10 -3 15 -9 12 -12z m513 6 c-6 -18 -25 -21 -25 -3 0 8 7 15 15 15 7 0 12 -5
10 -12z m-248 -14 c0 -2 -7 -4 -15 -4 -8 0 -15 4 -15 10 0 5 7 7 15 4 8 -4 15
-8 15 -10z m70 -4 c0 -5 -5 -10 -11 -10 -5 0 -7 5 -4 10 3 6 8 10 11 10 2 0 4
-4 4 -10z m192 -22 c-18 -19 -22 -20 -22 -6 0 9 8 21 17 27 27 15 29 3 5 -21z
m-428 -17 c-6 -6 -24 19 -24 34 1 6 7 1 15 -9 8 -11 12 -22 9 -25z m82 2 c-11
-11 -17 4 -9 23 7 18 8 18 11 1 2 -10 1 -21 -2 -24z m89 21 c-16 -12 -17 -16
-6 -23 9 -6 10 -11 2 -15 -20 -13 -26 26 -6 40 10 8 21 14 24 14 3 0 -3 -7
-14 -16z m460 6 c-3 -5 -11 -10 -16 -10 -6 0 -7 5 -4 10 3 6 11 10 16 10 6 0
7 -4 4 -10z m-668 -6 c-3 -3 -12 -4 -19 -1 -8 3 -5 6 6 6 11 1 17 -2 13 -5z
m83 -4 c0 -5 -5 -10 -11 -10 -5 0 -7 5 -4 10 3 6 8 10 11 10 2 0 4 -4 4 -10z
m417 -32 c-3 -7 -5 -2 -5 12 0 14 2 19 5 13 2 -7 2 -19 0 -25z m-622 12 c3 -5
1 -10 -4 -10 -6 0 -11 5 -11 10 0 6 2 10 4 10 3 0 8 -4 11 -10z m282 -27 c-13
-13 -19 -14 -29 -5 -9 9 -7 12 10 12 12 0 22 5 22 12 0 6 3 8 7 4 4 -3 -1 -14
-10 -23z m266 -32 c-3 -12 -10 -18 -17 -14 -6 4 -5 -1 3 -11 10 -12 11 -20 3
-28 -8 -8 -13 -3 -18 18 -5 18 -3 29 4 32 17 5 15 32 -3 32 -13 0 -20 -19 -16
-44 1 -5 -14 -6 -33 -3 -27 4 -38 2 -46 -11 -11 -19 -13 -12 -4 12 4 10 18 16
35 16 18 0 29 5 29 14 0 13 27 31 43 28 4 -1 7 4 8 11 0 6 4 2 9 -10 5 -11 6
-30 3 -42z m57 49 c0 -5 -4 -10 -9 -10 -5 0 -18 -3 -28 -6 -16 -5 -16 -4 1 10
23 18 36 20 36 6z m-430 -20 c-6 -11 -16 -18 -21 -14 -6 3 -3 12 8 20 24 18
26 17 13 -6z m220 -18 c0 -14 -1 -14 -12 0 -11 15 -15 15 -26 2 -11 -11 -10
-14 3 -14 8 0 15 -5 15 -11 0 -7 -7 -8 -17 -4 -10 4 -26 9 -35 12 -30 9 -28
29 3 27 16 -1 31 2 34 7 9 13 35 -1 35 -19z m-320 3 c0 -1 -9 -5 -19 -8 -13
-3 -18 -1 -14 9 4 10 33 10 33 -1z m175 -4 c3 -5 1 -12 -5 -16 -5 -3 -10 1
-10 9 0 18 6 21 15 7z m-265 -27 c0 -8 -5 -12 -10 -9 -6 4 -8 11 -5 16 9 14
15 11 15 -7z m170 12 c0 -3 -4 -8 -10 -11 -5 -3 -10 -1 -10 4 0 6 5 11 10 11
6 0 10 -2 10 -4z m-80 -16 c0 -5 -2 -10 -4 -10 -3 0 -8 5 -11 10 -3 6 -1 10 4
10 6 0 11 -4 11 -10z m-270 -10 c0 -5 -5 -10 -11 -10 -5 0 -7 5 -4 10 3 6 8
10 11 10 2 0 4 -4 4 -10z m450 0 c0 -5 -5 -10 -11 -10 -5 0 -7 5 -4 10 3 6 8
10 11 10 2 0 4 -4 4 -10z m135 0 c-3 -5 -16 -10 -28 -9 -21 0 -21 1 -2 9 28
12 37 12 30 0z m-185 -8 c0 -4 -9 -8 -20 -8 -11 0 -20 4 -20 8 0 4 9 8 20 8
11 0 20 -4 20 -8z m312 -22 c24 -26 23 -38 -2 -15 -17 16 -21 16 -35 2 -10
-11 -12 -18 -4 -23 6 -3 15 0 20 7 6 11 9 10 15 -4 4 -12 13 -16 25 -12 34 11
21 -24 -13 -39 -36 -14 -54 -11 -25 5 9 6 15 15 11 20 -4 6 -11 6 -19 -1 -11
-9 -16 -6 -26 12 -6 13 -13 25 -15 27 -1 2 -16 -6 -32 -17 l-29 -21 -17 21
c-21 24 -15 36 7 14 9 -9 23 -13 31 -10 19 7 21 21 4 27 -7 2 -10 7 -6 11 3 4
15 2 26 -5 11 -7 27 -9 36 -6 23 9 11 26 -14 20 -12 -3 -20 0 -20 7 0 18 60 4
82 -20z m-218 11 c3 -4 -6 -13 -19 -19 -28 -13 -31 -9 -12 13 14 17 24 18 31
6z m-424 -5 c0 -2 -8 -10 -17 -17 -16 -13 -17 -12 -4 4 13 16 21 21 21 13z
m370 -28 c0 -19 -16 -5 -17 14 -2 18 0 20 7 8 5 -8 10 -18 10 -22z m330 18 c0
-8 -6 -16 -14 -19 -10 -4 -12 0 -9 14 6 22 23 26 23 5z m-640 -16 c-24 -15
-36 -11 -14 4 10 8 21 12 24 10 2 -3 -2 -9 -10 -14z m86 -12 c-22 -12 -20 -28
3 -28 11 0 23 -4 26 -10 11 -17 -37 -11 -50 6 -9 14 -8 21 9 38 12 11 23 17
25 12 2 -5 -4 -13 -13 -18z m189 23 c3 -5 1 -12 -5 -16 -5 -3 -10 1 -10 9 0
18 6 21 15 7z m125 -12 c0 -5 -4 -9 -10 -9 -5 0 -10 7 -10 16 0 8 5 12 10 9 6
-3 10 -10 10 -16z m273 -3 c3 -8 -1 -17 -10 -20 -22 -9 -35 3 -20 19 16 18 24
18 30 1z m-530 -10 c12 -10 15 -16 7 -21 -6 -4 -12 -5 -13 -4 -2 2 -9 12 -16
22 -16 20 -3 22 22 3z m594 -26 c-3 -11 1 -21 9 -24 12 -5 13 -14 5 -55 -3
-13 -31 26 -31 43 -1 19 -2 20 -14 4 -7 -10 -16 -15 -19 -12 -3 3 -5 -8 -5
-24 1 -26 3 -29 15 -16 21 20 25 17 13 -7 -7 -11 -9 -32 -6 -45 6 -22 4 -24
-29 -19 -42 5 -57 13 -49 26 3 5 2 8 -3 7 -4 -1 -23 1 -42 5 -22 5 -31 11 -28
21 3 7 0 19 -6 25 -6 6 -8 13 -5 16 3 3 13 -1 21 -10 20 -20 33 -20 16 1 -10
13 -10 17 2 25 8 5 23 8 34 6 14 -1 19 3 17 14 -2 13 4 15 25 11 19 -4 23 -7
11 -10 -18 -4 -25 -22 -9 -22 12 0 59 39 47 40 -5 0 -3 7 4 15 16 19 33 9 27
-15z m-718 11 c7 -5 9 -11 5 -14 -5 -3 -15 1 -22 9 -14 16 -5 18 17 5z m-69
-21 c0 -5 -4 -10 -10 -10 -5 0 -10 5 -10 10 0 6 5 10 10 10 6 0 10 -4 10 -10z
m141 -28 c18 3 25 0 22 -8 -7 -19 -56 -10 -64 12 -12 30 -9 42 4 16 8 -18 17
-23 38 -20z m-57 2 c3 -8 2 -12 -4 -9 -6 3 -10 10 -10 16 0 14 7 11 14 -7z
m-30 -19 c-4 -8 -10 -15 -15 -15 -4 0 -6 7 -3 15 4 8 10 15 15 15 4 0 6 -7 3
-15z m142 0 c-3 -8 -2 -15 3 -15 4 0 14 -11 21 -25 7 -13 18 -22 23 -18 6 3 7
1 3 -5 -9 -15 -36 -4 -36 15 0 8 -5 11 -11 7 -6 -3 -15 0 -20 7 -7 11 -11 10
-22 -5 -9 -13 -20 -17 -33 -13 -18 7 -18 6 1 -8 11 -9 25 -13 32 -11 7 3 13 1
13 -4 0 -6 10 -10 22 -10 21 0 21 0 2 -14 -17 -13 -20 -13 -25 2 -4 10 -8 12
-12 5 -9 -14 -67 -14 -67 0 0 5 12 6 28 3 l27 -6 -27 24 c-29 26 -27 36 6 36
25 1 56 22 56 39 0 6 5 11 11 11 6 0 9 -7 5 -15z m-185 -4 c-17 -11 -4 -34 15
-27 7 3 16 1 19 -4 9 -15 -74 -5 -88 10 -9 10 -9 11 1 6 6 -4 12 -3 12 3 0 5
8 12 18 14 29 8 38 7 23 -2z m129 -11 c0 -5 -4 -10 -10 -10 -5 0 -10 5 -10 10
0 6 5 10 10 10 6 0 10 -4 10 -10z m-68 -32 c-7 -7 -12 -8 -12 -2 0 14 12 26
19 19 2 -3 -1 -11 -7 -17z m160 -70 c-7 -7 -12 -8 -12 -2 0 14 12 26 19 19 2
-3 -1 -11 -7 -17z m-112 -8 c0 -5 -7 -10 -16 -10 -8 0 -12 5 -9 10 3 6 10 10
16 10 5 0 9 -4 9 -10z m25 -10 c3 -5 1 -10 -4 -10 -6 0 -11 5 -11 10 0 6 2 10
4 10 3 0 8 -4 11 -10z m0 -36 c15 -15 17 -15 36 2 15 13 20 14 17 4 -2 -8 3
-15 10 -16 6 -1 17 -2 23 -3 5 0 7 -6 3 -12 -4 -8 -9 -7 -15 2 -6 10 -9 11 -9
2 0 -7 -5 -13 -11 -13 -5 0 -7 5 -3 12 5 8 2 9 -11 4 -23 -8 -52 1 -59 19 -7
19 -1 19 19 -1z m185 -29 c-7 -8 -21 -15 -31 -15 -10 0 -21 -4 -24 -10 -9 -15
-25 -12 -25 5 0 15 9 18 47 16 11 -1 24 3 28 8 3 6 9 11 12 11 3 0 0 -7 -7
-15z m67 -7 c31 -35 35 -46 15 -44 -23 1 -28 -39 -8 -60 18 -18 12 -36 -9 -28
-8 3 -11 12 -8 22 5 11 2 14 -10 9 -9 -3 -17 -3 -17 2 0 5 -11 12 -25 15 -14
4 -23 11 -20 16 3 5 11 7 18 5 17 -6 42 16 49 43 4 15 2 22 -8 22 -7 0 -16
-11 -20 -25 -7 -27 -24 -34 -24 -10 0 8 5 15 12 15 6 0 9 3 5 6 -6 6 13 33 24
34 3 0 15 -10 26 -22z m2028 -18 c32 -12 55 -64 55 -124 0 -43 -6 -53 -102
-172 -57 -70 -156 -192 -221 -272 -64 -80 -130 -154 -145 -164 -35 -23 -114
-24 -137 -1 -25 24 -35 58 -35 116 l0 52 171 210 c232 286 276 333 324 350 49
17 57 18 90 5z m-2295 -4 c0 -3 -4 -8 -10 -11 -5 -3 -10 -1 -10 4 0 6 5 11 10
11 6 0 10 -2 10 -4z m50 -15 c0 -6 -5 -13 -10 -16 -6 -4 -8 -10 -5 -15 3 -5 1
-11 -5 -15 -5 -3 -10 -1 -10 5 0 7 -7 9 -16 6 -10 -4 -13 -2 -8 6 5 8 2 9 -10
5 -10 -4 -15 -3 -11 3 3 6 17 10 31 10 13 0 24 5 24 10 0 6 5 10 10 10 6 0 10
-4 10 -9z m133 -8 c-7 -17 -20 -17 -26 1 -4 10 0 14 12 13 11 -1 17 -7 14 -14z
m-68 -43 c3 -5 1 -10 -4 -10 -6 0 -11 5 -11 10 0 6 2 10 4 10 3 0 8 -4 11 -10z
m-130 -17 c7 -17 8 -16 14 2 7 17 8 16 13 -8 7 -39 -5 -41 -31 -7 -12 17 -17
30 -12 30 5 0 12 -8 16 -17z m101 -19 c-4 -25 -18 -29 -31 -11 -19 26 -9 50
15 35 10 -6 17 -17 16 -24z m112 28 c6 -1 12 -10 11 -19 0 -11 -3 -13 -6 -5
-2 6 -16 12 -29 12 -14 0 -22 -4 -19 -10 3 -6 -1 -7 -9 -4 -9 3 -16 11 -16 18
0 10 25 13 68 8z m237 -63 c2 -8 -4 -20 -11 -27 -8 -7 -14 -8 -14 -3 0 5 -9
12 -20 16 -16 5 -18 10 -8 31 10 22 14 23 31 11 11 -7 21 -20 22 -28z m-375
-15 c0 -18 -14 -18 -30 1 -9 11 -9 15 -1 15 7 0 9 5 5 13 -5 8 -2 8 9 -2 9 -7
17 -20 17 -27z m142 13 c10 -3 20 -2 23 3 9 15 45 12 45 -4 0 -7 -8 -20 -17
-27 -15 -12 -16 -12 -10 3 7 19 -8 34 -18 19 -3 -6 -13 -7 -22 -4 -11 4 -14 3
-9 -5 4 -7 2 -12 -3 -12 -6 0 -11 5 -11 11 0 6 -7 9 -15 5 -18 -7 -19 0 -2 18
6 8 14 11 17 7 3 -4 13 -10 22 -14z m93 4 c3 -5 1 -12 -5 -16 -5 -3 -10 1 -10
9 0 18 6 21 15 7z m186 -12 c11 -5 16 -15 13 -21 -4 -6 -3 -8 3 -5 6 4 25 2
43 -4 22 -8 28 -14 19 -19 -7 -5 -18 -2 -25 5 -11 10 -19 11 -39 2 -14 -7 -25
-18 -25 -24 0 -16 -16 -17 -26 -1 -4 7 2 18 14 26 25 17 29 32 8 32 -8 0 -18
5 -21 10 -8 13 11 13 36 -1z m-158 -12 c3 -8 -3 -14 -15 -14 -16 -2 -17 1 -8
13 15 17 17 17 23 1z m817 10 c0 -2 -11 -13 -24 -24 -22 -19 -25 -20 -31 -5
-3 9 -3 13 1 10 3 -4 13 -1 21 7 13 13 33 20 33 12z m-920 -27 c0 -5 -7 -10
-16 -10 -8 0 -12 5 -9 10 3 6 10 10 16 10 5 0 9 -4 9 -10z m60 -19 c0 -10 -6
-21 -14 -24 -16 -6 -17 24 -1 35 14 11 15 10 15 -11z m102 3 c14 -14 20 -14
33 -4 8 7 15 8 15 2 0 -17 -25 -31 -40 -22 -9 5 -19 5 -26 -1 -8 -7 -11 -2
-11 16 0 29 4 31 29 9z m-75 -19 c-15 -16 -19 -13 -11 9 3 9 10 13 15 10 5 -3
3 -11 -4 -19z m-72 -4 c-8 -14 -45 -14 -45 0 0 6 7 9 15 6 8 -4 17 -2 21 4 3
6 8 8 11 5 3 -2 2 -9 -2 -15z m108 -10 c3 -11 -1 -22 -8 -25 -8 -3 -11 4 -10
17 4 35 10 37 18 8z m157 9 c-13 -8 -12 -10 3 -10 9 0 17 5 17 11 0 5 5 7 10
4 23 -14 9 -31 -22 -28 -23 3 -29 1 -19 -5 17 -12 -1 -24 -24 -16 -14 6 -13 9
6 30 12 13 27 24 33 24 6 0 4 -5 -4 -10z m111 -13 c-10 -9 -11 -8 -5 6 3 10 9
15 12 12 3 -3 0 -11 -7 -18z m49 9 c0 -2 -7 -6 -15 -10 -8 -3 -15 -1 -15 4 0
6 7 10 15 10 8 0 15 -2 15 -4z m40 -6 c0 -5 7 -7 15 -4 10 4 15 0 15 -15 0
-12 -6 -21 -14 -21 -8 0 -18 -5 -22 -12 -5 -8 -2 -9 9 -5 9 3 19 2 23 -4 3 -6
12 -8 18 -6 7 3 19 1 27 -4 11 -7 10 -9 -6 -10 -11 -1 -24 -1 -29 0 -5 1 -4
-4 3 -13 7 -9 8 -17 2 -20 -5 -3 -11 0 -14 6 -3 9 -11 4 -25 -12 -12 -14 -21
-20 -22 -13 0 6 4 15 10 18 5 3 15 16 21 28 7 12 8 19 4 14 -5 -4 -19 0 -32 8
-25 17 -31 8 -10 -14 10 -11 9 -13 -6 -7 -10 3 -23 6 -28 6 -6 0 -6 8 1 19 5
11 10 22 10 25 0 10 -39 6 -45 -4 -8 -13 -25 -13 -25 -1 0 11 18 17 69 26 27
5 32 3 28 -10 -4 -9 -1 -15 8 -15 18 0 20 21 3 38 -9 9 -9 12 0 12 7 0 12 -4
12 -10z m201 -9 c-6 -10 -8 -20 -6 -23 4 -4 -5 -4 -47 1 -19 2 7 30 30 34 15
2 28 5 30 6 1 0 -2 -7 -7 -18z m-311 0 c6 -2 -23 -21 -31 -21 -3 0 -6 6 -6 14
0 7 7 12 16 11 9 -2 18 -4 21 -4z m233 3 c9 -3 13 -13 10 -25 -4 -13 -1 -19 7
-17 7 2 15 -3 17 -9 3 -9 -3 -10 -24 -3 -15 5 -37 11 -48 13 -19 5 -19 5 3 12
14 5 21 13 18 21 -6 16 -4 16 17 8z m-573 -46 c0 -7 -7 -5 -17 5 -12 10 -29
13 -48 10 -29 -5 -29 -5 -10 10 17 13 23 13 47 1 16 -8 28 -20 28 -26z m22 30
c-7 -7 -16 -7 -28 0 -14 8 -13 10 10 10 18 0 24 -4 18 -10z m130 3 c2 6 13 9
23 6 19 -5 18 -5 -3 -12 -14 -5 -21 -13 -18 -22 3 -8 -2 -17 -12 -20 -9 -4
-21 -11 -25 -17 -6 -7 -7 -4 -4 6 3 9 1 18 -5 20 -8 3 -7 11 1 27 10 17 15 20
26 11 10 -8 14 -8 17 1z m-74 -34 c6 3 12 -2 12 -10 0 -9 3 -22 6 -31 4 -11 0
-14 -15 -13 -21 1 -31 17 -11 17 6 0 10 7 10 15 0 8 -6 12 -14 9 -8 -3 -16 4
-19 18 -5 20 -4 21 6 7 7 -9 18 -14 25 -12z m209 17 c-3 -3 -12 -4 -19 -1 -8
3 -5 6 6 6 11 1 17 -2 13 -5z m-52 -14 c3 5 12 7 20 4 8 -4 13 -10 10 -14 -3
-5 -1 -11 4 -15 12 -7 3 -35 -11 -35 -5 0 -7 4 -4 9 12 19 -6 41 -29 37 -13
-3 -29 2 -36 10 -10 13 -8 13 14 5 16 -6 29 -7 32 -1z m409 -9 c3 -5 -1 -11
-9 -14 -9 -4 -12 -1 -8 9 6 16 10 17 17 5z m93 -11 c-4 -27 -15 -36 -23 -17
-3 9 -12 13 -20 10 -20 -7 -18 -23 4 -24 16 -1 16 -2 0 -6 -19 -5 -24 -18 -9
-27 5 -4 12 0 15 6 4 7 4 3 2 -9 -2 -12 2 -27 10 -34 11 -9 14 -8 14 6 0 14 5
12 21 -10 18 -22 28 -26 55 -23 22 3 30 0 25 -7 -10 -12 -2 -75 9 -75 13 0 19
39 6 43 -6 2 -7 8 -3 13 10 11 28 -17 22 -33 -2 -7 1 -13 8 -13 8 0 9 -3 1 -8
-6 -4 -13 -15 -17 -25 -4 -9 -18 -22 -32 -27 -15 -6 -23 -15 -20 -20 9 -15
-21 -23 -41 -12 -16 9 -16 10 2 16 16 5 19 15 19 65 0 56 -1 59 -18 44 -9 -9
-18 -14 -20 -12 -1 2 -7 13 -13 24 -6 11 -17 20 -25 21 -29 2 -31 4 -20 18 8
10 6 23 -11 54 -23 41 -23 41 -3 61 27 27 66 28 62 1z m-426 -10 c6 0 7 5 4
10 -3 6 -2 10 3 10 6 0 12 -7 16 -15 3 -8 1 -15 -5 -15 -6 0 -7 -4 -4 -10 3
-5 2 -10 -2 -10 -15 0 -33 23 -32 40 0 10 2 11 6 3 2 -7 9 -13 14 -13z m82
-17 c12 -4 27 -6 32 -4 6 1 5 -3 -2 -10 -9 -9 -17 -8 -37 5 -29 18 -40 21 -31
6 3 -5 1 -10 -4 -10 -14 0 -14 6 1 33 10 19 13 19 16 5 2 -9 13 -20 25 -25z
m197 -7 c0 -6 -5 -5 -12 2 -18 18 -28 15 -28 -8 0 -13 -6 -20 -17 -19 -11 0
-13 3 -5 6 6 2 12 15 12 27 0 13 3 26 7 29 8 8 43 -22 43 -37z m-362 21 c6 3
12 1 12 -4 0 -4 -16 -8 -35 -9 -23 0 -35 4 -35 12 0 10 6 11 23 5 12 -4 28 -6
35 -4z m-85 -12 c-3 -9 -8 -14 -10 -11 -3 3 -2 9 2 15 9 16 15 13 8 -4z m497
-5 c-24 -15 -36 -11 -14 4 10 8 21 12 24 10 2 -3 -2 -9 -10 -14z m-620 -9 c0
-6 -4 -12 -8 -15 -5 -3 -9 1 -9 9 0 8 4 15 9 15 4 0 8 -4 8 -9z m26 -28 c-10
-10 -19 5 -10 18 6 11 8 11 12 0 2 -7 1 -15 -2 -18z m154 12 c-7 -9 -15 -13
-17 -11 -7 7 7 26 19 26 6 0 6 -6 -2 -15z m105 5 c3 -6 -1 -7 -10 -4 -11 5
-14 2 -9 -11 6 -15 5 -15 -15 -4 -19 13 -19 14 -3 21 24 10 30 9 37 -2z m435
-11 c0 -6 -4 -7 -10 -4 -5 3 -10 11 -10 16 0 6 5 7 10 4 6 -3 10 -11 10 -16z
m-380 -10 c0 -11 -3 -11 -24 -3 -23 9 -20 23 4 17 11 -3 20 -9 20 -14z m266
12 c-9 -14 -46 -20 -46 -7 0 6 11 13 26 14 14 1 23 -2 20 -7z m-218 -18 c0
-10 3 -26 7 -35 4 -11 3 -18 -4 -18 -6 0 -11 -7 -11 -16 0 -8 -5 -12 -10 -9
-7 4 -6 14 1 28 9 15 9 22 1 25 -8 2 -8 9 1 23 15 23 16 24 15 2z m92 10 c0
-5 -11 -13 -25 -20 -14 -6 -25 -7 -25 -2 0 5 10 14 23 19 29 11 27 11 27 3z
m160 -3 c0 -5 -4 -10 -10 -10 -5 0 -10 5 -10 10 0 6 5 10 10 10 6 0 10 -4 10
-10z m-100 -20 c9 -16 8 -20 -5 -20 -8 0 -15 9 -15 20 0 11 2 20 5 20 2 0 9
-9 15 -20z m224 -5 c11 -8 16 -15 10 -15 -5 0 -18 7 -28 15 -11 8 -16 15 -10
15 5 0 18 -7 28 -15z m-289 -5 c3 -5 1 -10 -4 -10 -6 0 -11 5 -11 10 0 6 2 10
4 10 3 0 8 -4 11 -10z m185 -11 c0 -5 -4 -9 -10 -9 -5 0 -10 7 -10 16 0 8 5
12 10 9 6 -3 10 -10 10 -16z m-90 -18 c-6 -12 -16 -19 -21 -15 -6 4 -3 13 8
24 23 22 28 18 13 -9z m-285 10 c3 -5 1 -12 -5 -16 -5 -3 -10 1 -10 9 0 18 6
21 15 7z m148 -5 c6 -14 0 -26 -13 -26 -3 0 -6 9 -6 20 0 23 11 27 19 6z m175
-24 c6 -18 -15 -14 -22 4 -4 10 -1 14 6 12 6 -2 14 -10 16 -16z m50 6 c-2 -8
6 -13 19 -12 12 0 20 -3 17 -7 -2 -4 2 -10 8 -12 7 -3 0 -4 -17 -4 -16 1 -34
7 -38 12 -5 6 -7 0 -4 -12 4 -20 1 -22 -29 -21 -26 1 -31 4 -23 14 6 7 18 10
26 7 13 -5 15 -2 11 15 -5 19 3 29 25 31 4 1 6 -5 5 -11z m-428 -8 c0 -5 7 -7
15 -4 8 4 15 2 15 -4 0 -5 -9 -12 -20 -15 -11 -3 -18 -1 -14 4 3 5 0 9 -5 9
-6 0 -11 5 -11 10 0 6 5 10 10 10 6 0 10 -4 10 -10z m105 -10 c-10 -11 -23
-20 -29 -20 -6 1 0 10 13 20 30 26 39 26 16 0z m-44 -3 c-6 -8 -10 -16 -8 -18
1 -2 0 -3 -2 -1 -12 7 -7 32 6 32 12 0 13 -3 4 -13z m283 -22 c-4 -8 -10 -13
-15 -10 -4 3 -6 12 -3 20 4 8 10 13 15 10 4 -3 6 -12 3 -20z m-156 -7 c-10
-10 -23 -16 -28 -13 -6 4 -10 -1 -10 -10 0 -9 9 -19 20 -22 24 -6 26 -19 5
-26 -9 -4 -21 5 -32 23 -9 16 -29 34 -43 40 -22 9 -20 9 13 5 20 -3 37 -2 36
2 -3 17 2 20 29 20 28 0 28 -1 10 -19z m82 -32 c-8 -8 -13 -7 -20 4 -5 8 -10
20 -10 25 0 6 5 3 10 -5 8 -12 11 -11 17 10 l8 25 3 -24 c2 -13 -1 -28 -8 -35z
m-340 34 c0 -5 -5 -10 -11 -10 -5 0 -7 5 -4 10 3 6 8 10 11 10 2 0 4 -4 4 -10z
m573 -33 c18 -7 24 -27 7 -27 -5 0 -10 5 -10 10 0 6 -6 10 -14 10 -8 0 -17 7
-20 16 -3 8 -10 12 -16 9 -5 -3 -10 2 -10 11 0 16 2 15 23 -3 12 -11 30 -23
40 -26z m-463 23 c0 -5 7 -7 15 -4 8 4 15 2 15 -4 0 -11 -23 -22 -47 -22 -13
0 -13 2 -2 17 10 11 10 14 2 9 -7 -4 -13 -2 -13 3 0 6 7 11 15 11 8 0 15 -4
15 -10z m188 -8 c2 -7 -3 -12 -12 -12 -9 0 -16 7 -16 16 0 17 22 14 28 -4z
m142 -33 c0 -5 -4 -9 -10 -9 -5 0 -10 5 -10 12 0 6 -9 1 -20 -12 -21 -25 -34
-23 -24 3 9 25 64 30 64 6z m45 1 c-3 -5 -1 -10 5 -10 6 0 8 -5 5 -10 -4 -6
-11 -8 -16 -5 -12 8 -11 35 2 35 5 0 7 -4 4 -10z m-119 -48 c-9 -8 -26 10 -26
26 1 15 2 15 15 -2 8 -11 13 -21 11 -24z m81 30 c10 8 12 7 8 -5 -6 -15 -40
-29 -49 -20 -2 3 -2 12 1 20 4 10 9 11 16 4 7 -7 15 -7 24 1z m-152 -35 c0
-20 -33 -57 -50 -57 -4 0 3 8 15 18 13 10 21 24 18 32 -3 10 -8 9 -20 -4 -21
-21 -27 -20 -23 2 2 9 4 21 4 25 1 5 10 5 21 2 13 -4 20 -2 20 6 0 7 3 9 8 5
4 -4 7 -18 7 -29z m198 -22 c-3 -9 -8 -14 -10 -11 -3 3 -2 9 2 15 9 16 15 13
8 -4z m-267 -22 c-2 -2 -11 0 -20 3 -14 5 -15 9 -5 15 12 7 34 -10 25 -18z
m107 -18 c25 5 35 2 45 -14 7 -12 8 -21 3 -21 -6 0 -13 5 -16 10 -4 6 -10 8
-14 6 -4 -3 -25 -1 -46 5 -28 8 -34 13 -24 20 8 5 15 4 17 -2 2 -5 18 -7 35
-4z m107 -5 c0 -13 -7 -20 -20 -20 -19 0 -19 1 -3 20 10 11 19 20 20 20 2 0 3
-9 3 -20z m-1200 -711 l0 -370 28 19 c41 30 272 261 272 272 0 6 -7 10 -15 10
-10 0 -15 10 -15 33 l0 32 130 0 130 0 0 -27 c0 -19 -6 -29 -22 -34 -37 -11
-174 -114 -307 -232 l-45 -39 194 -207 c107 -115 205 -212 217 -217 16 -6 23
-17 23 -34 l0 -25 -108 0 -107 0 -45 58 c-67 86 -293 352 -299 352 -28 -1 -31
-21 -29 -170 l3 -154 58 -15 c52 -14 57 -17 57 -43 l0 -28 -190 0 -190 0 0 29
c0 26 5 31 50 46 l50 17 0 492 0 493 -48 20 c-40 17 -49 25 -47 44 1 12 6 24
12 26 21 7 139 20 191 22 l52 1 0 -371z m-1242 290 c-3 -28 -9 -34 -63 -54
l-60 -22 3 -494 c4 -485 3 -495 -18 -564 -19 -60 -31 -78 -89 -135 -75 -76
-142 -112 -217 -118 -43 -4 -55 -1 -73 17 -22 22 -27 56 -12 80 6 9 35 17 76
22 71 7 103 24 139 73 21 27 21 40 24 572 l3 544 -28 11 c-15 6 -52 16 -80 22
-51 11 -53 12 -53 44 l0 33 226 0 225 0 -3 -31z m669 -323 c113 -51 186 -158
206 -302 30 -206 -59 -386 -231 -467 -61 -29 -75 -32 -167 -32 -87 0 -107 3
-156 26 -111 52 -177 138 -204 266 -51 240 47 450 245 523 83 31 223 24 307
-14z m1735 10 c115 -49 178 -164 178 -323 l0 -73 -260 0 -261 0 7 -52 c21
-165 114 -258 258 -258 54 0 119 25 172 65 l31 24 22 -30 23 -31 -47 -45 c-84
-80 -190 -108 -316 -84 -138 27 -219 86 -270 195 -117 252 2 566 238 626 52
13 180 5 225 -14z m564 -86 c3 0 17 12 32 26 73 70 218 98 275 54 38 -30 52
-80 33 -123 -8 -20 -23 -40 -34 -46 -53 -28 -132 5 -132 56 0 22 -3 24 -27 18
-40 -9 -119 -62 -138 -91 -14 -21 -15 -57 -13 -266 l3 -241 25 -8 c14 -4 51
-13 83 -19 54 -11 57 -13 57 -41 l0 -29 -220 0 -220 0 0 29 c0 28 4 30 55 42
l55 12 -2 306 -3 306 -53 19 c-43 15 -52 23 -50 40 3 19 16 23 133 41 l130 20
3 -52 c2 -29 5 -53 8 -53z m1300 89 c32 -12 73 -36 93 -54 30 -28 36 -40 36
-74 0 -110 -149 -116 -179 -7 -15 54 -52 79 -125 84 -106 8 -172 -50 -201
-177 -24 -104 2 -287 54 -375 32 -54 68 -81 130 -97 79 -20 181 7 242 63 22
19 22 19 45 -13 l23 -32 -42 -38 c-114 -100 -291 -124 -429 -58 -60 29 -137
117 -163 187 -44 114 -37 277 17 389 28 61 112 157 157 180 93 48 245 58 342
22z m755 1 c98 -30 156 -80 204 -174 l40 -79 0 -131 c0 -126 -1 -134 -31 -196
-76 -161 -217 -247 -389 -238 -169 9 -287 108 -331 278 -22 87 -15 233 15 310
78 200 282 296 492 230z m-1490 -639 c35 -36 39 -90 9 -139 -55 -89 -190 -47
-190 59 0 43 21 94 42 102 7 3 35 6 61 6 41 1 53 -4 78 -28z"/>
<path d="M6458 7413 c12 -2 30 -2 40 0 9 3 -1 5 -23 4 -22 0 -30 -2 -17 -4z"/>
<path d="M6573 7413 c9 -2 23 -2 30 0 6 3 -1 5 -18 5 -16 0 -22 -2 -12 -5z"/>
<path d="M6378 7403 c7 -3 16 -2 19 1 4 3 -2 6 -13 5 -11 0 -14 -3 -6 -6z"/>
<path d="M6638 7403 c7 -3 16 -2 19 1 4 3 -2 6 -13 5 -11 0 -14 -3 -6 -6z"/>
<path d="M6250 7360 c-8 -5 -10 -10 -5 -10 6 0 17 5 25 10 8 5 11 10 5 10 -5
0 -17 -5 -25 -10z"/>
<path d="M6845 7300 c10 -11 20 -20 23 -20 3 0 -3 9 -13 20 -10 11 -20 20 -23
20 -3 0 3 -9 13 -20z"/>
<path d="M6920 7201 c0 -6 4 -13 10 -16 6 -3 7 1 4 9 -7 18 -14 21 -14 7z"/>
<path d="M5955 7170 c-3 -6 1 -7 9 -4 18 7 21 14 7 14 -6 0 -13 -4 -16 -10z"/>
<path d="M6940 7150 c6 -11 13 -20 16 -20 2 0 0 9 -6 20 -6 11 -13 20 -16 20
-2 0 0 -9 6 -20z"/>
<path d="M5919 7133 c-13 -16 -12 -17 4 -4 9 7 17 15 17 17 0 8 -8 3 -21 -13z"/>
<path d="M6631 7096 c2 -2 18 -6 34 -10 22 -5 26 -4 15 4 -14 9 -59 15 -49 6z"/>
<path d="M6961 7064 c0 -11 3 -14 6 -6 3 7 2 16 -1 19 -3 4 -6 -2 -5 -13z"/>
<path d="M6740 7056 c0 -2 8 -10 18 -17 15 -13 16 -12 3 4 -13 16 -21 21 -21
13z"/>
<path d="M6436 6974 c-5 -14 -4 -15 9 -4 17 14 19 20 6 20 -5 0 -12 -7 -15
-16z"/>
<path d="M6971 6914 c0 -11 3 -14 6 -6 3 7 2 16 -1 19 -3 4 -6 -2 -5 -13z"/>
<path d="M6386 6903 c-6 -14 -5 -15 5 -6 7 7 10 15 7 18 -3 3 -9 -2 -12 -12z"/>
<path d="M4978 6883 c12 -2 30 -2 40 0 9 3 -1 5 -23 4 -22 0 -30 -2 -17 -4z"/>
<path d="M5265 6880 c3 -5 8 -10 11 -10 2 0 4 5 4 10 0 6 -5 10 -11 10 -5 0
-7 -4 -4 -10z"/>
<path d="M4893 6873 c9 -2 23 -2 30 0 6 3 -1 5 -18 5 -16 0 -22 -2 -12 -5z"/>
<path d="M5318 6873 c6 -2 18 -2 25 0 6 3 1 5 -13 5 -14 0 -19 -2 -12 -5z"/>
<path d="M5649 6853 l-24 -28 28 24 c15 14 27 26 27 28 0 8 -8 1 -31 -24z"/>
<path d="M6356 6843 c-6 -14 -5 -15 5 -6 7 7 10 15 7 18 -3 3 -9 -2 -12 -12z"/>
<path d="M6946 6805 c-9 -26 -7 -32 5 -12 6 10 9 21 6 23 -2 3 -7 -2 -11 -11z"/>
<path d="M4830 6800 c0 -5 5 -10 11 -10 5 0 7 5 4 10 -3 6 -8 10 -11 10 -2 0
-4 -4 -4 -10z"/>
<path d="M4770 6786 c0 -10 8 -16 22 -16 12 0 19 1 17 3 -2 1 -12 9 -21 16
-15 12 -18 11 -18 -3z"/>
<path d="M6901 6774 c0 -11 3 -14 6 -6 3 7 2 16 -1 19 -3 4 -6 -2 -5 -13z"/>
<path d="M6931 6734 c0 -11 3 -14 6 -6 3 7 2 16 -1 19 -3 4 -6 -2 -5 -13z"/>
<path d="M4871 6727 c2 -1 13 -9 24 -17 19 -14 19 -14 6 3 -7 9 -18 17 -24 17
-6 0 -8 -1 -6 -3z"/>
<path d="M6955 6689 c-4 -6 -5 -12 -2 -15 2 -3 7 2 10 11 7 17 1 20 -8 4z"/>
<path d="M6831 6644 c0 -11 3 -14 6 -6 3 7 2 16 -1 19 -3 4 -6 -2 -5 -13z"/>
<path d="M6992 6623 c-1 -17 -5 -40 -8 -50 -5 -14 -4 -15 5 -7 7 7 11 28 8 50
-3 35 -4 35 -5 7z"/>
<path d="M4860 6610 c0 -5 5 -10 11 -10 5 0 7 5 4 10 -3 6 -8 10 -11 10 -2 0
-4 -4 -4 -10z"/>
<path d="M6830 6584 c0 -19 41 -64 58 -63 13 0 11 3 -5 9 -12 5 -29 22 -37 37
-8 15 -15 23 -16 17z"/>
<path d="M4862 6563 c6 -7 14 -13 19 -13 5 0 9 6 9 13 0 7 -9 13 -19 13 -15 0
-17 -3 -9 -13z"/>
<path d="M6281 6564 c0 -11 3 -14 6 -6 3 7 2 16 -1 19 -3 4 -6 -2 -5 -13z"/>
<path d="M4890 6525 c0 -8 2 -15 4 -15 2 0 6 7 10 15 3 8 1 15 -4 15 -6 0 -10
-7 -10 -15z"/>
<path d="M4912 6513 c-17 -30 -15 -37 4 -19 8 9 14 22 11 29 -2 7 -8 4 -15
-10z"/>
<path d="M6928 6523 c7 -3 16 -2 19 1 4 3 -2 6 -13 5 -11 0 -14 -3 -6 -6z"/>
<path d="M5105 6510 c-3 -5 -1 -10 4 -10 6 0 11 5 11 10 0 6 -2 10 -4 10 -3 0
-8 -4 -11 -10z"/>
<path d="M4878 6478 c3 -14 2 -19 -6 -14 -8 5 -12 0 -12 -13 0 -11 -5 -23 -10
-26 -15 -9 -1 -27 16 -21 9 3 11 0 7 -12 -6 -15 -5 -16 12 -2 17 14 17 13 10
-10 -6 -20 -5 -22 5 -13 7 6 18 10 24 9 6 -2 8 -1 4 1 -4 2 -4 11 -1 19 3 9
-2 14 -16 14 -12 0 -21 6 -21 16 0 9 -5 12 -12 8 -10 -5 -10 -3 0 7 11 12 14
12 22 0 7 -12 11 -12 24 2 18 17 7 30 -18 21 -10 -4 -16 -1 -16 9 0 9 -4 18
-9 21 -5 4 -7 -4 -3 -16z"/>
<path d="M4935 6480 c3 -5 10 -10 16 -10 5 0 9 5 9 10 0 6 -7 10 -16 10 -8 0
-12 -4 -9 -10z"/>
<path d="M5006 6405 c4 -8 10 -12 15 -9 14 8 10 24 -6 24 -9 0 -12 -6 -9 -15z"/>
<path d="M5170 6364 c0 -8 5 -12 10 -9 6 4 8 11 5 16 -9 14 -15 11 -15 -7z"/>
<path d="M5009 6350 c-16 -17 -15 -40 2 -40 6 0 9 8 7 18 -2 13 3 16 22 15 14
-2 19 0 10 4 -8 3 -17 9 -20 13 -3 3 -12 -1 -21 -10z"/>
<path d="M4947 6353 c-4 -3 -7 -13 -7 -21 0 -12 3 -12 15 -2 8 7 15 16 15 21
0 11 -14 12 -23 2z"/>
<path d="M4960 6315 c-8 -9 -8 -15 -2 -15 12 0 26 19 19 26 -2 2 -10 -2 -17
-11z"/>
<path d="M5037 6323 c-4 -3 -7 -11 -7 -17 0 -6 5 -5 12 2 6 6 9 14 7 17 -3 3
-9 2 -12 -2z"/>
<path d="M5225 6320 c3 -5 8 -10 11 -10 2 0 4 5 4 10 0 6 -5 10 -11 10 -5 0
-7 -4 -4 -10z"/>
<path d="M4990 6290 c0 -5 7 -10 15 -10 8 0 15 -4 15 -8 0 -5 7 -9 15 -9 24 0
17 17 -11 27 -32 12 -34 12 -34 0z"/>
<path d="M6020 6286 c0 -2 8 -10 18 -17 15 -13 16 -12 3 4 -13 16 -21 21 -21
13z"/>
<path d="M6270 6280 c0 -5 5 -10 10 -10 6 0 10 5 10 10 0 6 -4 10 -10 10 -5 0
-10 -4 -10 -10z"/>
<path d="M5650 6270 c-9 -6 -10 -10 -3 -10 6 0 15 5 18 10 8 12 4 12 -15 0z"/>
<path d="M5720 6270 c-104 -25 -195 -82 -299 -189 -41 -42 -71 -67 -68 -56 6
16 3 15 -13 -5 -31 -38 -46 -69 -16 -35 29 35 35 22 6 -15 -11 -14 -20 -30
-20 -36 0 -6 28 -26 62 -44 55 -30 72 -34 138 -33 95 0 177 24 258 74 35 22
69 36 75 32 7 -4 4 -9 -9 -14 -17 -7 -17 -8 4 -8 23 -1 30 13 11 25 -7 4 2 20
25 43 38 40 75 113 76 150 0 36 -36 87 -74 105 -36 17 -99 19 -156 6z"/>
<path d="M5915 6250 c21 -24 26 -25 19 -6 -3 8 -13 17 -22 21 -13 5 -13 2 3
-15z"/>
<path d="M4967 6244 c3 -8 12 -13 19 -10 8 3 14 1 14 -4 0 -6 12 -10 28 -10
l27 1 -30 16 c-42 24 -66 27 -58 7z"/>
<path d="M4944 6233 c0 -18 24 -50 36 -47 12 3 29 -9 25 -17 -6 -8 25 -29 43
-29 12 0 2 53 -12 62 -6 4 -19 5 -30 2 -13 -4 -25 2 -40 21 -19 23 -22 24 -22
8z"/>
<path d="M5107 6239 c7 -7 15 -10 18 -7 3 3 -2 9 -12 12 -14 6 -15 5 -6 -5z"/>
<path d="M6055 6230 c-3 -6 1 -7 9 -4 18 7 21 14 7 14 -6 0 -13 -4 -16 -10z"/>
<path d="M6192 6226 c7 -8 15 -12 17 -11 5 6 -10 25 -20 25 -5 0 -4 -6 3 -14z"/>
<path d="M5136 6222 c-3 -6 -1 -14 5 -17 15 -10 25 3 12 16 -7 7 -13 7 -17 1z"/>
<path d="M5539 6209 l-24 -20 28 17 c15 9 27 18 27 20 0 8 -8 4 -31 -17z"/>
<path d="M6278 6223 c-2 -5 -1 -28 3 -53 l6 -45 1 53 c2 48 -2 63 -10 45z"/>
<path d="M5063 6185 c0 -9 4 -14 9 -13 5 2 10 8 10 13 0 5 -5 11 -10 13 -5 1
-9 -4 -9 -13z"/>
<path d="M5961 6184 c0 -11 3 -14 6 -6 3 7 2 16 -1 19 -3 4 -6 -2 -5 -13z"/>
<path d="M5495 6180 c-4 -6 -11 -7 -17 -4 -7 4 -8 2 -4 -5 6 -9 11 -9 22 0 14
11 18 19 10 19 -3 0 -8 -5 -11 -10z"/>
<path d="M6015 6180 c-3 -5 1 -10 10 -10 9 0 13 5 10 10 -3 6 -8 10 -10 10 -2
0 -7 -4 -10 -10z"/>
<path d="M6155 6170 c-3 -5 -1 -10 4 -10 6 0 11 5 11 10 0 6 -2 10 -4 10 -3 0
-8 -4 -11 -10z"/>
<path d="M6197 6160 c4 -16 0 -20 -18 -20 -17 0 -20 -3 -12 -11 6 -6 9 -18 6
-25 -3 -8 0 -14 6 -14 6 0 11 6 11 14 0 8 7 21 15 30 8 8 12 22 9 30 -9 23
-23 20 -17 -4z"/>
<path d="M5170 6158 c0 -9 5 -20 10 -23 13 -8 13 5 0 25 -8 13 -10 13 -10 -2z"/>
<path d="M5105 6150 c3 -5 8 -10 11 -10 2 0 4 5 4 10 0 6 -5 10 -11 10 -5 0
-7 -4 -4 -10z"/>
<path d="M6067 6144 c5 -14 3 -16 -11 -11 -10 4 -15 3 -11 -3 9 -15 35 -12 35
4 0 8 -4 18 -10 21 -6 4 -7 -1 -3 -11z"/>
<path d="M6104 6118 c3 -10 1 -20 -5 -23 -5 -4 -6 -11 -3 -17 4 -7 10 -5 16 6
6 10 5 22 -2 34 -11 16 -11 16 -6 0z"/>
<path d="M6140 6115 c0 -8 4 -15 10 -15 5 0 7 7 4 15 -4 8 -8 15 -10 15 -2 0
-4 -7 -4 -15z"/>
<path d="M5396 6098 c3 -4 11 -5 19 -1 21 7 19 12 -4 10 -11 0 -18 -5 -15 -9z"/>
<path d="M6275 6100 c3 -5 8 -10 11 -10 2 0 4 5 4 10 0 6 -5 10 -11 10 -5 0
-7 -4 -4 -10z"/>
<path d="M5085 6081 c-3 -5 -1 -12 4 -16 12 -7 -7 -55 -21 -55 -4 0 -8 -5 -8
-11 0 -8 4 -9 13 0 8 6 17 7 21 3 5 -4 6 2 4 12 -1 10 3 21 11 24 9 3 11 0 6
-8 -6 -10 -4 -12 8 -7 9 3 18 1 21 -6 2 -7 5 -7 5 -2 1 16 -57 76 -64 66z"/>
<path d="M6065 6080 c3 -5 8 -10 11 -10 2 0 4 5 4 10 0 6 -5 10 -11 10 -5 0
-7 -4 -4 -10z"/>
<path d="M5140 6069 c0 -5 5 -7 10 -4 6 3 10 8 10 11 0 2 -4 4 -10 4 -5 0 -10
-5 -10 -11z"/>
<path d="M5170 6050 c-9 -6 -10 -10 -3 -10 6 0 15 5 18 10 8 12 4 12 -15 0z"/>
<path d="M5920 6040 c-6 -11 -7 -20 -2 -20 6 0 12 9 15 20 3 11 3 20 1 20 -2
0 -8 -9 -14 -20z"/>
<path d="M6150 6049 c0 -5 5 -7 10 -4 6 3 10 8 10 11 0 2 -4 4 -10 4 -5 0 -10
-5 -10 -11z"/>
<path d="M6105 6040 c3 -5 8 -10 11 -10 2 0 4 5 4 10 0 6 -5 10 -11 10 -5 0
-7 -4 -4 -10z"/>
<path d="M6155 6030 c-16 -7 -17 -9 -3 -9 9 -1 20 4 23 9 7 11 7 11 -20 0z"/>
<path d="M5171 6021 c-9 -6 -10 -10 -2 -16 9 -5 9 -11 -1 -23 -10 -14 -10 -15
2 -5 10 9 24 54 16 53 -1 0 -7 -4 -15 -9z"/>
<path d="M6267 6017 c-3 -8 -1 -20 4 -28 6 -10 9 -7 9 14 0 29 -5 35 -13 14z"/>
<path d="M5920 6006 c0 -2 8 -10 18 -17 15 -13 16 -12 3 4 -13 16 -21 21 -21
13z"/>
<path d="M5113 5980 c-1 -11 2 -18 8 -15 5 4 9 -5 9 -19 0 -18 4 -24 14 -20
12 5 11 12 -6 40 -11 19 -21 34 -22 34 -1 0 -2 -9 -3 -20z"/>
<path d="M6262 5930 c0 -19 2 -27 5 -17 2 9 2 25 0 35 -3 9 -5 1 -5 -18z"/>
<path d="M5926 5937 c3 -10 9 -15 12 -12 3 3 0 11 -7 18 -10 9 -11 8 -5 -6z"/>
<path d="M5076 5903 c-6 -14 -5 -15 5 -6 7 7 10 15 7 18 -3 3 -9 -2 -12 -12z"/>
<path d="M5106 5904 c-8 -21 -4 -25 14 -14 11 7 12 12 4 20 -8 8 -13 7 -18 -6z"/>
<path d="M5257 5900 c3 -11 7 -20 9 -20 2 0 4 9 4 20 0 11 -4 20 -9 20 -5 0
-7 -9 -4 -20z"/>
<path d="M5765 5910 c-3 -6 1 -7 9 -4 18 7 21 14 7 14 -6 0 -13 -4 -16 -10z"/>
<path d="M5796 5903 c-6 -14 -5 -15 5 -6 7 7 10 15 7 18 -3 3 -9 -2 -12 -12z"/>
<path d="M6095 5910 c3 -5 11 -10 16 -10 6 0 7 5 4 10 -3 6 -11 10 -16 10 -6
0 -7 -4 -4 -10z"/>
<path d="M5320 5894 c8 -10 15 -20 16 -22 1 -2 4 1 7 5 3 5 -4 15 -16 23 -21
12 -21 12 -7 -6z"/>
<path d="M6223 5895 c0 -8 4 -15 9 -15 4 0 8 7 8 15 0 8 -4 15 -8 15 -5 0 -9
-7 -9 -15z"/>
<path d="M5905 5881 c-9 -24 4 -26 25 -3 19 20 19 21 0 19 -11 -1 -22 -8 -25
-16z"/>
<path d="M6201 5884 c0 -11 3 -14 6 -6 3 7 2 16 -1 19 -3 4 -6 -2 -5 -13z"/>
<path d="M5710 5880 c-9 -6 -10 -10 -3 -10 6 0 15 5 18 10 8 12 4 12 -15 0z"/>
<path d="M5086 5858 c16 -18 17 -21 2 -15 -12 4 -15 2 -12 -7 4 -11 10 -11 30
-2 25 12 35 42 9 33 -8 -4 -17 -2 -20 3 -4 6 -11 10 -17 10 -6 0 -3 -10 8 -22z"/>
<path d="M5164 5856 c-12 -25 -2 -56 19 -56 6 0 4 7 -5 17 -16 15 -16 17 0 29
11 8 14 16 7 23 -7 7 -14 2 -21 -13z"/>
<path d="M5360 5876 c0 -3 9 -10 20 -16 11 -6 20 -8 20 -6 0 3 -9 10 -20 16
-11 6 -20 8 -20 6z"/>
<path d="M5868 5873 c7 -3 16 -2 19 1 4 3 -2 6 -13 5 -11 0 -14 -3 -6 -6z"/>
<path d="M5230 5856 c0 -17 16 -30 23 -19 3 5 -1 14 -9 21 -12 10 -14 10 -14
-2z"/>
<path d="M5946 5855 c-11 -8 -15 -15 -10 -15 6 0 19 7 30 15 10 8 15 14 9 14
-5 0 -19 -6 -29 -14z"/>
<path d="M6074 5857 c-4 -7 -4 -9 1 -5 4 4 16 3 27 -3 11 -6 22 -9 24 -6 2 2
-7 9 -21 15 -18 9 -26 8 -31 -1z"/>
<path d="M6237 5855 c-12 -9 -14 -14 -6 -17 10 -3 10 -18 0 -67 -7 -35 -10
-65 -8 -67 3 -3 12 32 20 78 8 46 15 84 14 85 -1 1 -10 -5 -20 -12z"/>
<path d="M5638 5853 c7 -3 16 -2 19 1 4 3 -2 6 -13 5 -11 0 -14 -3 -6 -6z"/>
<path d="M5871 5852 c-1 -8 -6 -10 -13 -6 -9 5 -10 4 -3 -3 15 -16 55 -26 55
-14 0 6 -6 11 -14 11 -8 0 -17 6 -19 13 -4 9 -6 9 -6 -1z"/>
<path d="M5436 5839 c3 -5 29 -9 57 -8 59 1 54 5 -15 12 -26 2 -45 1 -42 -4z"/>
<path d="M5580 5846 c0 -2 7 -6 15 -10 8 -3 15 -1 15 4 0 6 -7 10 -15 10 -8 0
-15 -2 -15 -4z"/>
<path d="M5272 5819 c-9 -14 -19 -18 -32 -14 -12 4 -20 2 -20 -4 0 -6 -6 -11
-14 -11 -8 0 -13 -10 -13 -25 0 -14 3 -25 8 -25 4 0 6 9 4 20 -2 11 0 20 6 20
5 0 9 -7 9 -16 0 -8 4 -13 10 -9 5 3 6 13 3 22 -5 12 -2 15 10 10 12 -4 22 2
33 19 9 13 15 27 12 29 -2 2 -9 -5 -16 -16z"/>
<path d="M5375 5830 c3 -5 8 -10 11 -10 2 0 4 5 4 10 0 6 -5 10 -11 10 -5 0
-7 -4 -4 -10z"/>
<path d="M5670 5827 c0 -8 6 -14 14 -14 8 0 12 6 9 14 -3 7 -9 13 -14 13 -5 0
-9 -6 -9 -13z"/>
<path d="M5780 5829 c0 -5 5 -7 10 -4 6 3 10 8 10 11 0 2 -4 4 -10 4 -5 0 -10
-5 -10 -11z"/>
<path d="M5300 5826 c0 -4 7 -14 15 -22 8 -9 15 -11 15 -6 0 5 -7 15 -15 22
-8 7 -15 9 -15 6z"/>
<path d="M5330 5826 c0 -2 7 -6 15 -10 8 -3 15 -1 15 4 0 6 -7 10 -15 10 -8 0
-15 -2 -15 -4z"/>
<path d="M5970 5826 c0 -2 7 -7 16 -10 8 -3 12 -2 9 4 -6 10 -25 14 -25 6z"/>
<path d="M5135 5810 c3 -5 8 -10 11 -10 2 0 4 5 4 10 0 6 -5 10 -11 10 -5 0
-7 -4 -4 -10z"/>
<path d="M5830 5810 c0 -5 5 -10 10 -10 6 0 10 5 10 10 0 6 -4 10 -10 10 -5 0
-10 -4 -10 -10z"/>
<path d="M5920 5810 c0 -5 7 -10 15 -10 8 0 15 5 15 10 0 6 -7 10 -15 10 -8 0
-15 -4 -15 -10z"/>
<path d="M5422 5798 c-7 -7 -12 -16 -12 -20 0 -14 37 -9 50 7 15 18 0 20 -19
3 -11 -11 -13 -10 -8 5 7 20 5 21 -11 5z"/>
<path d="M5865 5790 c-10 -11 -15 -20 -11 -20 4 0 16 9 28 20 12 11 17 20 11
20 -5 0 -18 -9 -28 -20z"/>
<path d="M6050 5801 c0 -11 49 -36 57 -28 3 4 -1 7 -10 7 -9 0 -17 4 -17 9 0
5 -7 11 -15 15 -8 3 -15 2 -15 -3z"/>
<path d="M6116 5788 c10 -34 12 -34 37 -9 l22 23 -22 -11 c-19 -10 -23 -9 -23
4 0 8 -5 15 -11 15 -6 0 -8 -9 -3 -22z"/>
<path d="M5605 5784 c9 -9 19 -13 23 -10 3 4 0 11 -8 16 -24 15 -33 11 -15 -6z"/>
<path d="M6180 5796 c0 -2 7 -7 16 -10 8 -3 12 -2 9 4 -6 10 -25 14 -25 6z"/>
<path d="M5570 5781 c0 -5 5 -13 10 -16 6 -3 10 -2 10 4 0 5 -4 13 -10 16 -5
3 -10 2 -10 -4z"/>
<path d="M5925 5781 c-11 -5 -23 -7 -27 -4 -14 8 -8 -12 11 -36 11 -14 21 -19
25 -13 3 5 -1 12 -9 16 -26 10 -17 29 10 22 19 -5 23 -3 19 9 -4 8 -7 15 -8
14 0 0 -10 -4 -21 -8z"/>
<path d="M6030 5770 c0 -5 5 -10 10 -10 6 0 10 5 10 10 0 6 -4 10 -10 10 -5 0
-10 -4 -10 -10z"/>
<path d="M5274 5762 c4 -7 1 -12 -8 -12 -9 0 -16 -5 -16 -11 0 -6 6 -9 14 -6
7 3 18 1 24 -5 8 -8 9 -5 5 11 -3 12 -10 24 -16 28 -6 3 -7 1 -3 -5z"/>
<path d="M5480 5766 c0 -2 7 -7 16 -10 8 -3 12 -2 9 4 -6 10 -25 14 -25 6z"/>
<path d="M5721 5756 c-7 -8 -8 -17 -3 -19 4 -3 13 3 20 14 14 22 0 26 -17 5z"/>
<path d="M5825 5760 c3 -5 8 -10 11 -10 2 0 4 5 4 10 0 6 -5 10 -11 10 -5 0
-7 -4 -4 -10z"/>
<path d="M5990 5761 c0 -6 5 -11 10 -11 6 0 10 -4 10 -10 0 -5 -9 -10 -20 -10
-23 0 -23 2 -9 -39 10 -28 13 -30 24 -15 6 9 16 14 21 11 5 -3 18 2 29 11 11
9 18 16 16 15 -2 -2 -10 5 -17 15 -7 9 -16 13 -20 9 -5 -4 -2 -12 6 -17 18
-11 6 -24 -15 -16 -11 4 -14 13 -10 25 3 10 -1 24 -10 31 -10 8 -15 9 -15 1z
m10 -51 c0 -5 -2 -10 -4 -10 -3 0 -8 5 -11 10 -3 6 -1 10 4 10 6 0 11 -4 11
-10z"/>
<path d="M6160 5753 c0 -7 -5 -13 -11 -13 -11 0 -3 -40 12 -53 5 -4 7 -4 4 -1
-3 4 1 14 8 22 9 13 9 14 0 8 -8 -4 -13 -1 -13 9 0 21 30 31 41 14 7 -11 9 -9
9 6 0 15 -7 20 -25 20 -14 0 -25 -6 -25 -12z"/>
<path d="M5354 5744 c5 -14 4 -15 -8 -5 -11 9 -16 9 -22 0 -5 -8 -3 -9 6 -4
10 6 12 3 7 -14 -5 -22 -5 -22 14 -5 21 19 25 44 8 44 -6 0 -8 -7 -5 -16z"/>
<path d="M5395 5750 c3 -5 10 -10 16 -10 5 0 9 5 9 10 0 6 -7 10 -16 10 -8 0
-12 -4 -9 -10z"/>
<path d="M5768 5753 c7 -3 16 -2 19 1 4 3 -2 6 -13 5 -11 0 -14 -3 -6 -6z"/>
<path d="M5800 5740 c0 -5 5 -10 10 -10 6 0 10 5 10 10 0 6 -4 10 -10 10 -5 0
-10 -4 -10 -10z"/>
<path d="M5506 5724 c-4 -9 -4 -19 -1 -22 2 -3 7 3 11 12 4 9 4 19 1 22 -2 3
-7 -3 -11 -12z"/>
<path d="M5599 5723 c-13 -16 -12 -17 4 -4 9 7 17 15 17 17 0 8 -8 3 -21 -13z"/>
<path d="M5687 5726 c-7 -17 21 -58 34 -51 5 4 9 1 9 -4 0 -6 6 -11 13 -11 6
1 -1 11 -17 24 -16 13 -26 28 -22 34 3 6 2 13 -3 16 -5 3 -11 0 -14 -8z"/>
<path d="M5772 5727 c-8 -10 -6 -13 8 -14 13 -1 17 3 13 13 -6 17 -8 17 -21 1z"/>
<path d="M5880 5731 c0 -5 -3 -17 -7 -27 -4 -11 -3 -15 4 -11 14 9 24 47 12
47 -5 0 -9 -4 -9 -9z"/>
<path d="M5210 5721 c0 -6 5 -11 10 -11 6 0 10 -5 10 -11 0 -5 -8 -9 -17 -8
-29 2 -43 0 -43 -9 0 -5 14 -7 30 -4 17 2 30 0 29 -4 -5 -27 3 -44 20 -44 22
0 34 -51 20 -87 -11 -28 -2 -53 16 -47 10 4 11 12 4 31 -8 22 -7 24 8 19 14
-6 16 -5 6 5 -16 16 -17 30 -2 27 6 -2 14 3 16 10 3 6 0 12 -6 12 -6 0 -11 7
-11 16 0 8 -4 13 -9 10 -5 -3 -12 1 -15 10 -3 8 -10 13 -15 9 -5 -3 -13 13
-18 37 -5 23 -14 43 -21 46 -6 2 -12 -1 -12 -7z"/>
<path d="M5378 5711 c-10 -10 -18 -24 -18 -31 0 -9 7 -6 20 8 12 12 25 22 30
22 6 0 10 5 10 10 0 16 -23 11 -42 -9z"/>
<path d="M5531 5714 c0 -11 3 -14 6 -6 3 7 2 16 -1 19 -3 4 -6 -2 -5 -13z"/>
<path d="M5016 5711 c-4 -7 -5 -15 -2 -18 9 -9 19 4 14 18 -4 11 -6 11 -12 0z"/>
<path d="M5435 5710 c9 -15 45 -32 45 -22 0 5 -12 14 -26 20 -14 7 -23 8 -19
2z"/>
<path d="M5837 5706 c-4 -10 -5 -21 -2 -24 9 -9 17 6 13 25 -3 17 -4 17 -11
-1z"/>
<path d="M6195 5710 c-3 -5 -1 -10 4 -10 6 0 11 5 11 10 0 6 -2 10 -4 10 -3 0
-8 -4 -11 -10z"/>
<path d="M5940 5700 c11 -7 9 -11 -12 -19 -14 -5 -34 -8 -44 -7 -11 2 -13 1
-6 -1 6 -3 12 -9 12 -15 0 -5 -7 -7 -16 -4 -9 3 -25 6 -36 6 -11 0 -22 8 -25
20 -3 11 -9 20 -15 20 -5 0 -4 -9 2 -21 15 -28 4 -38 -15 -13 -8 10 -15 14
-15 8 0 -6 6 -17 14 -24 8 -6 13 -17 10 -24 -8 -20 19 -26 36 -8 13 14 12 15
-4 9 -12 -5 -16 -3 -14 5 3 7 15 15 27 16 17 3 21 0 16 -10 -5 -7 -5 -10 0 -6
11 11 45 -10 45 -28 0 -8 4 -12 10 -9 6 4 5 13 -2 24 -16 27 -3 51 28 51 22 0
24 -2 14 -14 -9 -12 -8 -15 7 -13 17 1 18 5 8 34 -5 18 -17 33 -25 33 -13 0
-13 -1 0 -10z"/>
<path d="M6120 5703 c0 -7 -10 -13 -22 -13 -25 0 -20 -8 8 -13 10 -1 25 -6 32
-11 21 -13 22 -3 2 24 -11 14 -20 19 -20 13z"/>
<path d="M5141 5686 c-8 -10 -9 -16 -1 -21 5 -3 10 -14 10 -23 0 -11 9 -18 28
-19 22 -1 27 3 28 22 1 16 -2 22 -12 18 -8 -3 -11 -9 -8 -14 3 -5 0 -9 -6 -9
-12 0 -30 41 -23 53 7 12 -4 8 -16 -7z"/>
<path d="M5290 5689 c0 -6 -7 -8 -17 -5 -15 6 -15 5 1 -13 16 -18 36 -20 36
-5 0 3 -4 2 -10 -1 -14 -9 -13 8 2 23 9 9 9 12 0 12 -7 0 -12 -5 -12 -11z"/>
<path d="M5518 5678 c5 -5 16 -8 23 -6 8 3 3 7 -10 11 -17 4 -21 3 -13 -5z"/>
<path d="M6187 5608 c-30 -94 -42 -110 -77 -103 -12 2 -28 1 -34 -3 -6 -4 2
-9 19 -12 17 -4 29 -11 28 -18 -5 -23 17 -12 30 16 23 43 68 183 65 194 -2 6
-16 -27 -31 -74z"/>
<path d="M5561 5668 c0 -10 -8 -18 -16 -18 -8 0 -15 -4 -15 -10 0 -5 -7 -7
-15 -4 -22 9 -9 -18 16 -34 12 -8 24 -11 27 -7 4 3 0 10 -8 15 -11 7 -11 11
-1 24 13 16 36 12 26 -4 -3 -5 -1 -11 5 -15 5 -3 10 -2 10 4 0 5 3 17 7 27 5
13 3 16 -10 11 -10 -4 -17 0 -20 11 -4 16 -5 15 -6 0z"/>
<path d="M5420 5666 c0 -10 28 -13 41 -5 10 6 7 9 -13 9 -16 0 -28 -2 -28 -4z"/>
<path d="M6050 5660 c0 -5 5 -10 10 -10 6 0 10 5 10 10 0 6 -4 10 -10 10 -5 0
-10 -4 -10 -10z"/>
<path d="M6090 5659 c0 -5 9 -9 20 -9 11 0 20 2 20 4 0 2 -9 6 -20 9 -11 3
-20 1 -20 -4z"/>
<path d="M5095 5650 c-4 -6 -11 -7 -17 -4 -7 4 -8 2 -4 -4 9 -14 36 -16 36 -2
0 5 7 7 15 4 8 -4 15 -1 15 5 0 14 -37 15 -45 1z"/>
<path d="M5318 5654 c-12 -11 4 -43 18 -37 10 4 11 9 4 18 -5 6 -7 15 -3 18 3
4 2 7 -4 7 -5 0 -12 -3 -15 -6z"/>
<path d="M5638 5653 c6 -2 12 -9 12 -15 0 -16 28 -39 35 -28 3 5 1 10 -6 10
-7 0 -9 3 -6 7 10 9 -13 33 -32 32 -10 0 -11 -2 -3 -6z"/>
<path d="M6175 5650 c3 -5 8 -10 11 -10 2 0 4 5 4 10 0 6 -5 10 -11 10 -5 0
-7 -4 -4 -10z"/>
<path d="M5400 5634 c0 -8 5 -12 10 -9 6 4 8 11 5 16 -9 14 -15 11 -15 -7z"/>
<path d="M5474 5626 c1 -25 10 -34 20 -18 2 4 -2 15 -9 25 -12 17 -13 16 -11
-7z"/>
<path d="M5714 5633 c-6 -10 -9 -24 -7 -30 8 -23 18 -14 19 17 1 35 2 35 -12
13z"/>
<path d="M5995 5640 c-3 -5 1 -10 10 -10 9 0 13 5 10 10 -3 6 -8 10 -10 10 -2
0 -7 -4 -10 -10z"/>
<path d="M5600 5624 c0 -8 3 -14 8 -14 9 0 39 19 32 21 -3 0 -13 2 -22 4 -10
2 -18 -3 -18 -11z"/>
<path d="M6067 5620 c-3 -11 -1 -20 4 -20 5 0 9 2 9 4 0 2 3 11 6 20 3 9 2 16
-4 16 -5 0 -12 -9 -15 -20z"/>
<path d="M6110 5630 c0 -5 5 -10 11 -10 5 0 7 5 4 10 -3 6 -8 10 -11 10 -2 0
-4 -4 -4 -10z"/>
<path d="M6146 5625 c-3 -9 0 -15 9 -15 16 0 20 16 6 24 -5 3 -11 -1 -15 -9z"/>
<path d="M5060 5619 c0 -6 -7 -8 -16 -5 -26 10 -5 -13 29 -30 40 -21 60 -41
52 -54 -4 -6 5 -10 19 -10 14 0 32 -10 41 -22 12 -16 19 -19 22 -10 3 7 12 19
20 28 12 11 13 18 4 27 -8 8 -11 8 -11 -2 0 -7 -4 -10 -9 -7 -5 4 -7 -4 -4
-16 l6 -23 -27 24 c-14 14 -26 35 -26 48 0 13 -4 23 -10 23 -5 0 -10 9 -10 21
0 15 -4 19 -16 15 -9 -3 -22 -6 -30 -6 -9 0 -13 -4 -10 -9 3 -5 15 -7 26 -4
16 4 20 0 20 -18 0 -14 -3 -19 -8 -13 -4 6 -19 14 -34 18 -19 4 -25 11 -22 21
4 8 3 15 0 15 -3 0 -6 -5 -6 -11z"/>
<path d="M5383 5620 c4 -16 57 -23 57 -8 0 5 -10 6 -21 3 -13 -5 -25 -2 -31 6
-8 11 -9 11 -5 -1z"/>
<path d="M5755 5620 c3 -5 8 -10 11 -10 2 0 4 5 4 10 0 6 -5 10 -11 10 -5 0
-7 -4 -4 -10z"/>
<path d="M5943 5615 c-10 -11 -10 -16 -1 -21 7 -4 14 -2 16 5 3 9 8 9 20 -1
13 -12 14 -10 3 10 -13 25 -21 27 -38 7z"/>
<path d="M6038 5623 c-10 -2 -18 -9 -18 -14 0 -14 16 -11 30 6 7 8 11 14 9 14
-2 -1 -12 -3 -21 -6z"/>
<path d="M5220 5599 c-11 -19 -10 -20 10 -9 11 6 18 15 15 21 -9 13 -13 11
-25 -12z"/>
<path d="M5169 5591 c6 -10 7 -21 4 -25 -3 -3 4 -6 17 -6 22 0 23 1 5 13 -10
8 -15 19 -11 25 4 7 1 12 -9 12 -12 0 -14 -4 -6 -19z"/>
<path d="M5879 5604 c-1 -5 -1 -13 0 -18 1 -5 -5 -6 -14 -3 -9 4 -15 1 -15 -8
0 -8 -7 -15 -16 -15 -14 0 -14 -3 -4 -15 10 -12 15 -13 21 -4 4 7 19 17 33 23
23 10 24 13 10 30 -7 11 -15 16 -15 10z"/>
<path d="M6102 5594 c13 -14 14 -21 5 -38 -7 -11 -16 -24 -20 -27 -4 -3 6 -6
24 -6 29 0 30 1 13 14 -18 14 -18 15 3 32 23 19 21 34 -3 24 -8 -3 -14 0 -14
6 0 6 -5 11 -12 11 -8 0 -6 -6 4 -16z"/>
<path d="M5020 5588 c0 -10 -4 -18 -8 -18 -4 0 -8 -8 -8 -19 0 -17 2 -18 32
-2 18 9 30 19 27 24 -2 4 -8 5 -13 2 -5 -3 -13 3 -19 12 -10 17 -10 17 -11 1z"/>
<path d="M5245 5577 c-4 -10 -5 -21 -1 -24 10 -10 18 4 13 24 -4 17 -4 17 -12
0z"/>
<path d="M5330 5579 c0 -5 5 -7 10 -4 6 3 17 -1 26 -9 9 -9 20 -14 25 -11 5 4
9 1 9 -4 0 -6 4 -11 9 -11 4 0 6 11 3 25 -5 27 -17 33 -26 13 -5 -10 -7 -10
-12 0 -7 15 -44 16 -44 1z"/>
<path d="M5450 5579 c0 -5 5 -7 10 -4 6 3 10 8 10 11 0 2 -4 4 -10 4 -5 0 -10
-5 -10 -11z"/>
<path d="M5566 5574 c-10 -26 -7 -29 10 -8 8 10 13 14 10 7 -8 -15 11 -27 20
-12 3 6 0 15 -7 20 -20 12 -26 11 -33 -7z"/>
<path d="M5625 5580 c3 -5 8 -10 11 -10 2 0 4 5 4 10 0 6 -5 10 -11 10 -5 0
-7 -4 -4 -10z"/>
<path d="M5773 5569 c0 -9 15 -23 32 -33 l30 -16 -23 20 c-25 21 -21 45 6 35
9 -3 13 -2 8 2 -15 15 -55 10 -53 -8z"/>
<path d="M6032 5572 l-24 -18 25 -17 c23 -15 26 -15 39 0 10 13 10 15 0 9 -7
-4 -20 -5 -29 -2 -13 5 -12 9 7 26 29 25 13 26 -18 2z"/>
<path d="M5430 5553 c0 -18 2 -33 4 -33 9 0 13 39 5 51 -6 10 -9 4 -9 -18z"/>
<path d="M5680 5571 c0 -6 4 -13 10 -16 6 -3 7 1 4 9 -7 18 -14 21 -14 7z"/>
<path d="M5935 5571 c3 -2 0 -10 -7 -18 -19 -23 -4 -20 20 3 23 22 23 23 3 21
-11 0 -18 -3 -16 -6z"/>
<path d="M5084 5535 c-2 -27 6 -31 24 -13 8 8 9 15 1 25 -17 19 -24 16 -25
-12z"/>
<path d="M5325 5550 c3 -5 11 -10 16 -10 6 0 7 5 4 10 -3 6 -11 10 -16 10 -6
0 -7 -4 -4 -10z"/>
<path d="M5508 5535 c-3 -14 -4 -25 -3 -25 2 0 10 11 19 25 13 20 14 25 2 25
-7 0 -16 -11 -18 -25z"/>
<path d="M5890 5550 c0 -5 5 -10 10 -10 6 0 10 5 10 10 0 6 -4 10 -10 10 -5 0
-10 -4 -10 -10z"/>
<path d="M5970 5550 c-9 -6 -10 -10 -3 -10 6 0 15 5 18 10 8 12 4 12 -15 0z"/>
<path d="M4440 5515 l-22 -24 51 -74 c67 -97 238 -263 320 -311 222 -130 497
-124 705 15 100 67 253 227 296 312 l35 66 -22 23 -23 22 -57 -41 c-151 -106
-453 -213 -602 -213 -174 0 -451 95 -603 208 l-56 41 -22 -24z"/>
<path d="M5665 5530 c-3 -5 1 -10 9 -10 9 0 16 5 16 10 0 6 -4 10 -9 10 -6 0
-13 -4 -16 -10z"/>
<path d="M5350 5521 c0 -5 5 -13 10 -16 6 -3 10 -2 10 4 0 5 -4 13 -10 16 -5
3 -10 2 -10 -4z"/>
<path d="M5475 5520 c-3 -5 -1 -10 4 -10 6 0 11 5 11 10 0 6 -2 10 -4 10 -3 0
-8 -4 -11 -10z"/>
<path d="M5875 5520 c3 -5 10 -10 16 -10 5 0 9 5 9 10 0 6 -7 10 -16 10 -8 0
-12 -4 -9 -10z"/>
<path d="M5987 5515 c-4 -9 -3 -13 3 -10 6 3 10 1 10 -4 0 -6 -4 -11 -8 -11
-5 0 -15 -11 -22 -25 -16 -29 -34 -34 -25 -6 3 11 1 23 -6 27 -7 4 -10 2 -7
-7 3 -8 -4 -20 -16 -27 -14 -9 -16 -12 -3 -8 9 3 17 1 17 -4 0 -6 9 -10 20
-10 11 0 20 5 20 10 0 6 7 10 16 10 8 0 13 4 9 9 -3 5 -1 12 5 16 5 3 15 15
21 27 8 16 8 19 -1 13 -7 -4 -16 -2 -20 5 -5 8 -9 7 -13 -5z"/>
<path d="M5550 5506 c7 -7 13 -7 20 0 6 6 3 10 -10 10 -13 0 -16 -4 -10 -10z"/>
<path d="M5680 5499 c-22 -18 -22 -19 -3 -10 12 6 25 16 28 21 9 15 3 12 -25
-11z"/>
<path d="M5920 5511 c0 -10 39 -11 45 -2 2 5 -7 9 -20 9 -14 0 -25 -3 -25 -7z"/>
<path d="M5830 5479 c-7 -13 -8 -19 -2 -15 6 3 13 -3 17 -14 7 -22 20 -26 30
-10 3 6 -1 10 -10 10 -12 0 -15 6 -10 19 8 28 -12 36 -25 10z"/>
<path d="M6045 5490 c-3 -5 -1 -10 4 -10 6 0 11 5 11 10 0 6 -2 10 -4 10 -3 0
-8 -4 -11 -10z"/>
<path d="M5238 5483 c6 -2 12 -11 12 -18 0 -7 -6 -15 -12 -18 -10 -4 -10 -7 0
-18 10 -11 12 -11 12 1 0 9 3 10 9 5 11 -12 2 -65 -11 -65 -5 0 -7 4 -4 9 3 5
-1 11 -9 15 -8 3 -15 12 -15 21 0 8 -5 15 -12 15 -6 0 -4 8 6 19 17 18 16 19
-8 17 -14 0 -33 -11 -42 -23 -12 -16 -27 -23 -50 -23 -19 0 -34 -5 -34 -11 0
-7 11 -9 30 -5 20 3 30 1 30 -6 0 -9 3 -9 11 -1 13 13 39 6 39 -9 0 -5 -4 -6
-10 -3 -5 3 -10 1 -10 -5 0 -21 25 -4 28 18 2 15 -2 22 -12 22 -17 0 -22 15
-8 24 5 3 15 -7 23 -22 7 -15 20 -37 28 -50 13 -22 15 -22 33 -5 10 9 16 23
14 30 -6 15 10 18 19 3 4 -6 11 -8 16 -4 6 3 1 12 -10 21 -12 8 -19 19 -15 24
3 5 0 8 -8 7 -7 -2 -12 3 -10 11 3 15 -15 31 -33 30 -5 0 -4 -3 3 -6z"/>
<path d="M5576 5475 c4 -8 8 -15 10 -15 2 0 4 7 4 15 0 8 -4 15 -10 15 -5 0
-7 -7 -4 -15z"/>
<path d="M5880 5475 c7 -9 15 -13 17 -11 7 7 -7 26 -19 26 -6 0 -6 -6 2 -15z"/>
<path d="M5624 5464 c-18 -14 -18 -15 4 -4 12 6 22 13 22 15 0 8 -5 6 -26 -11z"/>
<path d="M5505 5461 c-3 -6 3 -9 14 -8 11 0 17 5 15 9 -7 11 -22 10 -29 -1z"/>
<path d="M6010 5456 c0 -8 5 -18 10 -21 6 -3 10 3 10 14 0 12 -4 21 -10 21 -5
0 -10 -6 -10 -14z"/>
<path d="M5307 5453 c-4 -3 -7 -11 -7 -17 0 -6 5 -5 12 2 6 6 9 14 7 17 -3 3
-9 2 -12 -2z"/>
<path d="M6050 5456 c0 -2 9 -6 20 -9 11 -3 18 -1 14 4 -5 9 -34 13 -34 5z"/>
<path d="M5357 5444 c7 -3 9 -13 6 -22 -4 -15 -3 -15 6 -2 15 22 14 30 -6 29
-10 0 -13 -3 -6 -5z"/>
<path d="M5575 5440 c-3 -6 1 -7 9 -4 18 7 21 14 7 14 -6 0 -13 -4 -16 -10z"/>
<path d="M5781 5393 c-19 -32 -69 -93 -110 -136 -72 -75 -96 -112 -65 -100 17
6 18 -1 3 -29 -8 -15 -13 -17 -19 -8 -5 9 -9 9 -14 1 -4 -6 -2 -11 5 -11 7 0
5 -8 -6 -20 -10 -12 -25 -18 -32 -15 -8 2 -12 1 -8 -4 3 -5 2 -11 -2 -14 -5
-2 -1 -2 7 1 8 2 20 5 27 5 7 0 10 3 8 7 -2 4 7 13 20 20 14 7 25 21 25 30 0
9 5 21 12 28 9 9 9 12 0 12 -7 0 -12 10 -12 22 0 20 1 20 19 4 11 -10 26 -16
33 -13 8 4 7 6 -4 6 -10 1 -18 8 -18 16 0 8 0 18 0 23 0 4 4 7 9 7 13 0 26 14
26 28 1 7 6 11 13 10 7 -2 12 2 12 8 0 18 37 59 46 51 5 -4 6 -3 2 2 -4 5 7
30 26 55 42 59 49 71 39 71 -4 0 -23 -26 -42 -57z"/>
<path d="M6108 5443 c6 -2 12 -9 12 -14 0 -6 -4 -7 -10 -4 -5 3 -10 2 -10 -4
0 -22 18 -19 28 4 10 23 9 25 -11 24 -12 0 -16 -3 -9 -6z"/>
<path d="M5394 5423 c3 -6 0 -13 -6 -16 -7 -2 -10 -8 -5 -12 4 -5 13 -3 19 3
9 9 9 15 -1 25 -9 8 -12 8 -7 0z"/>
<path d="M5530 5420 c-8 -5 -10 -10 -5 -10 6 0 17 5 25 10 8 5 11 10 5 10 -5
0 -17 -5 -25 -10z"/>
<path d="M6070 5419 c0 -5 5 -7 10 -4 6 3 10 8 10 11 0 2 -4 4 -10 4 -5 0 -10
-5 -10 -11z"/>
<path d="M6013 5400 c1 -15 6 -20 19 -17 21 6 22 -1 4 -25 -13 -18 -42 -26
-31 -9 3 5 1 12 -5 16 -6 4 -10 -7 -10 -26 0 -26 3 -30 12 -21 7 7 16 12 22
12 5 0 1 -6 -9 -14 -15 -11 -17 -17 -7 -28 6 -8 8 -19 4 -24 -4 -4 0 -3 9 4 9
6 18 9 21 6 3 -2 20 20 37 52 18 31 30 59 26 62 -3 3 -8 -4 -12 -16 -9 -37
-29 -25 -24 14 1 6 -6 17 -14 24 -12 10 -15 10 -15 0 0 -10 -3 -10 -14 0 -12
9 -15 8 -13 -10z m57 -66 c0 -8 -4 -12 -10 -9 -5 3 -7 0 -4 -8 3 -8 1 -18 -5
-22 -12 -7 -16 37 -4 48 11 12 23 8 23 -9z"/>
<path d="M5460 5395 c-19 -7 -28 -14 -20 -14 8 0 29 6 45 14 39 17 21 18 -25
0z"/>
<path d="M5840 5400 c-13 -8 -12 -10 3 -10 9 0 17 5 17 10 0 12 -1 12 -20 0z"/>
<path d="M5915 5400 c4 -6 11 -8 16 -5 14 9 11 15 -7 15 -8 0 -12 -5 -9 -10z"/>
<path d="M5971 5396 c-8 -9 -8 -16 -2 -20 6 -4 15 3 21 14 12 23 -2 27 -19 6z"/>
<path d="M5313 5384 c-18 -8 -33 -19 -33 -24 0 -13 17 -13 25 0 3 6 18 10 33
11 15 0 21 3 14 6 -6 2 -10 9 -6 14 6 11 7 11 -33 -7z"/>
<path d="M5101 5376 c-15 -18 0 -28 16 -10 7 7 9 15 4 18 -5 3 -14 -1 -20 -8z"/>
<path d="M5881 5381 c-8 -5 -10 -14 -6 -21 6 -9 10 -8 17 4 12 21 7 28 -11 17z"/>
<path d="M5376 5368 c2 -3 -1 -8 -8 -11 -7 -2 -2 -2 12 0 34 6 48 21 17 20
-14 -1 -23 -5 -21 -9z"/>
<path d="M5904 5369 c-3 -6 1 -18 11 -27 13 -13 19 -14 22 -4 3 6 9 12 14 12
6 0 7 -4 4 -10 -3 -5 2 -21 11 -35 15 -24 15 -25 -2 -25 -11 0 -25 9 -31 20
-16 25 -54 46 -51 28 2 -9 -7 -12 -30 -10 -20 1 -31 -2 -27 -8 3 -5 13 -10 21
-10 8 0 14 -6 14 -13 0 -8 11 -19 25 -25 33 -15 35 -15 35 3 0 17 9 19 29 6 8
-5 9 -11 3 -15 -5 -3 -7 -17 -4 -31 4 -22 1 -25 -24 -25 l-29 -1 28 -24 c31
-27 35 -37 11 -28 -11 4 -15 2 -12 -7 9 -28 27 -20 58 24 l31 46 -26 12 c-30
14 -32 24 -5 31 23 6 20 46 -4 59 -9 5 -13 15 -10 23 4 8 -1 18 -10 21 -9 3
-13 10 -10 15 3 5 -4 9 -15 9 -11 0 -23 -5 -27 -11z m15 -63 c9 -10 8 -15 -4
-20 -8 -3 -15 -4 -15 -2 0 3 -3 11 -6 20 -8 20 9 21 25 2z m61 -115 c0 -12
-39 -25 -48 -16 -7 7 17 25 36 25 6 0 12 -4 12 -9z"/>
<path d="M5191 5361 c-9 -6 -10 -11 -2 -15 6 -4 11 -2 11 4 0 6 5 8 12 4 7 -4
8 -3 4 4 -8 14 -7 14 -25 3z"/>
<path d="M4190 5345 c-7 -8 -17 -12 -22 -9 -11 7 24 -63 46 -91 15 -18 15 -17
1 18 -9 22 -11 37 -5 37 5 0 10 5 10 11 0 5 -6 7 -12 3 -7 -4 -5 2 5 13 15 17
16 21 3 26 -8 3 -20 -1 -26 -8z"/>
<path d="M5803 5354 c3 -4 0 -13 -8 -21 -9 -9 -13 -24 -9 -39 4 -17 1 -26 -10
-30 -9 -3 -13 -10 -10 -15 8 -13 24 -11 22 2 -2 6 2 13 8 16 6 2 11 -3 12 -12
1 -8 3 -22 4 -30 1 -8 5 -15 10 -15 5 0 7 -4 3 -9 -3 -5 3 -11 12 -14 17 -4
17 -4 1 -11 -22 -10 -50 16 -42 38 3 9 1 16 -5 16 -6 0 -11 -7 -11 -15 0 -18
-12 -19 -28 -3 -6 6 -15 8 -19 4 -4 -4 -1 -11 7 -16 12 -7 12 -12 2 -22 -14
-14 -16 -42 -2 -33 6 4 8 10 5 14 -2 5 6 13 19 19 22 10 23 8 22 -16 -1 -15
-7 -37 -14 -49 -16 -28 -15 -43 2 -43 20 0 41 27 25 32 -9 3 -6 13 7 33 l18
28 6 -24 6 -24 12 22 c9 17 9 22 -1 26 -7 3 -5 6 6 6 23 1 22 17 -4 35 -13 9
-18 19 -14 27 5 8 4 10 -3 5 -8 -5 -12 0 -12 14 0 11 -7 32 -16 45 -15 22 -14
25 5 37 25 15 27 28 4 28 -9 0 -14 -3 -10 -6z m-13 -258 c0 -3 -4 -8 -10 -11
-5 -3 -10 -1 -10 4 0 6 5 11 10 11 6 0 10 -2 10 -4z"/>
<path d="M5840 5350 c0 -5 7 -10 16 -10 8 0 12 5 9 10 -3 6 -10 10 -16 10 -5
0 -9 -4 -9 -10z"/>
<path d="M4998 5343 c7 -3 16 -2 19 1 4 3 -2 6 -13 5 -11 0 -14 -3 -6 -6z"/>
<path d="M5278 5333 c6 -2 18 -2 25 0 6 3 1 5 -13 5 -14 0 -19 -2 -12 -5z"/>
<path d="M5238 5323 c7 -3 16 -2 19 1 4 3 -2 6 -13 5 -11 0 -14 -3 -6 -6z"/>
<path d="M5198 5313 c7 -3 16 -2 19 1 4 3 -2 6 -13 5 -11 0 -14 -3 -6 -6z"/>
<path d="M5738 5250 c-2 -6 -11 -12 -21 -14 -41 -6 -46 -39 -7 -49 24 -6 27 8
4 21 -14 8 -12 10 10 16 15 4 31 4 36 1 15 -10 12 11 -4 24 -10 8 -15 9 -18 1z"/>
<path d="M6017 5246 c-11 -8 -14 -17 -8 -20 5 -4 15 3 21 14 13 23 11 24 -13
6z"/>
<path d="M5853 5235 c0 -8 4 -12 9 -9 4 3 8 9 8 15 0 5 -4 9 -8 9 -5 0 -9 -7
-9 -15z"/>
<path d="M5887 5244 c-8 -9 21 -36 34 -32 6 2 2 11 -9 21 -10 9 -21 14 -25 11z"/>
<path d="M4250 5191 c0 -6 4 -13 10 -16 6 -3 7 1 4 9 -7 18 -14 21 -14 7z"/>
<path d="M5687 5139 c-14 -25 -20 -29 -32 -19 -11 9 -14 8 -12 -9 0 -11 5 -19
10 -18 18 4 58 49 55 63 -2 8 -10 1 -21 -17z"/>
<path d="M5873 5150 c-12 -17 -11 -18 9 -11 25 9 36 31 16 31 -7 0 -19 -9 -25
-20z"/>
<path d="M5539 5132 c-17 -19 -18 -22 -4 -11 11 9 27 18 35 21 9 3 10 7 3 11
-5 3 -21 -6 -34 -21z"/>
<path d="M4680 5140 c-8 -5 -12 -11 -9 -14 3 -3 14 1 25 9 21 16 8 20 -16 5z"/>
<path d="M5750 5137 c-18 -15 -25 -47 -10 -47 6 0 8 5 5 10 -3 6 -1 10 6 10 7
0 9 3 6 7 -4 3 -2 12 4 20 14 16 9 16 -11 0z"/>
<path d="M5902 5103 c5 -18 2 -23 -13 -23 -12 0 -19 -7 -19 -20 0 -11 -5 -20
-11 -20 -5 0 -7 5 -3 12 4 6 3 8 -4 4 -5 -3 -12 0 -15 6 -3 7 -4 3 -4 -9 1
-12 4 -21 8 -20 4 1 7 -2 7 -8 0 -5 -4 -9 -9 -7 -5 1 -9 -7 -9 -17 0 -25 -16
-36 -24 -16 -3 8 -10 15 -16 15 -7 0 -7 -6 1 -21 9 -17 7 -25 -11 -44 -18 -19
-27 -22 -46 -15 -20 8 -24 6 -24 -10 0 -22 -16 -27 -23 -7 -2 6 -8 9 -12 4 -5
-4 -3 -13 3 -19 10 -10 17 -10 32 0 30 19 38 14 11 -8 -12 -11 -27 -17 -32
-14 -5 3 -8 1 -7 -4 2 -6 -1 -10 -7 -11 -5 -1 -10 2 -11 7 0 4 -3 14 -7 22 -3
8 -8 22 -10 30 -3 8 -6 2 -7 -15 l-2 -30 -8 30 c-7 29 -8 29 -10 5 -1 -14 -2
-28 -1 -32 1 -10 -13 -10 -22 -1 -4 3 -2 12 4 19 7 8 7 14 -1 19 -5 3 -10 0
-10 -8 0 -8 -10 -22 -22 -33 -18 -16 -20 -16 -15 -2 8 23 -3 30 -20 12 -9 -8
-22 -13 -29 -10 -17 7 -18 -6 -2 -22 9 -9 9 -12 1 -12 -7 0 -15 5 -18 10 -10
16 -25 12 -25 -7 0 -9 3 -13 7 -10 3 4 15 -1 25 -10 18 -16 19 -16 25 6 4 17
11 22 29 18 14 -2 21 0 17 6 -4 6 0 8 10 4 9 -3 18 -1 21 6 3 7 5 6 5 -3 1 -9
-5 -22 -11 -30 -10 -11 -9 -11 6 0 18 13 19 13 14 -2 -5 -11 0 -18 14 -21 16
-4 47 22 145 118 78 78 122 129 117 136 -4 7 -3 9 4 5 6 -3 21 8 33 26 12 18
19 30 14 26 -4 -4 -15 -2 -23 5 -13 10 -15 9 -10 -10z m-252 -263 c0 -5 -5
-12 -11 -16 -14 -8 -33 11 -25 25 7 11 36 4 36 -9z"/>
<path d="M5692 5101 c-10 -6 -10 -10 1 -19 21 -18 16 -57 -7 -57 -11 0 -20 8
-22 18 -3 25 -9 29 -39 32 -22 3 -24 1 -14 -18 21 -41 31 -49 40 -35 7 10 9 9
9 -3 0 -19 -24 -42 -33 -32 -4 3 -7 2 -7 -3 0 -18 21 -32 41 -27 10 3 19 10
19 15 0 5 -4 6 -10 3 -22 -13 -8 8 20 32 17 13 30 31 30 39 0 8 5 14 11 14 6
0 9 -7 5 -15 -3 -8 -1 -15 4 -15 20 0 10 38 -11 43 -15 4 -20 11 -16 21 7 18
-1 20 -21 7z m-56 -40 c-4 -5 0 -11 6 -14 7 -2 9 -8 5 -13 -4 -5 -12 -2 -17 6
-13 20 -12 30 1 30 5 0 8 -4 5 -9z"/>
<path d="M5825 5102 c-2 -3 -2 -8 0 -12 5 -9 53 -1 60 10 5 7 -52 10 -60 2z"/>
<path d="M5677 5060 c3 -11 9 -20 15 -20 5 0 4 9 -2 20 -6 11 -12 20 -14 20
-2 0 -2 -9 1 -20z"/>
<path d="M5785 5055 c-16 -13 -25 -24 -18 -25 6 0 13 6 16 13 3 9 7 9 20 -2
15 -12 17 -11 17 13 0 14 -1 26 -2 26 -2 0 -16 -11 -33 -25z"/>
<path d="M5551 5033 c-9 -16 -12 -16 -21 -3 -9 12 -10 12 -8 -5 2 -12 10 -19
21 -17 11 2 15 -2 11 -13 -4 -9 -1 -15 9 -15 16 0 18 31 2 43 -6 4 -4 11 5 17
9 6 10 10 3 10 -7 0 -17 -8 -22 -17z"/>
<path d="M5461 5006 c-22 -23 -25 -24 -48 -9 -13 9 -26 13 -30 10 -3 -4 3 -10
13 -14 10 -3 22 -11 26 -17 4 -6 11 -6 21 2 7 7 17 8 21 4 4 -4 6 -1 4 7 -2 8
6 14 19 16 17 1 20 -2 13 -11 -7 -8 -6 -13 5 -18 8 -3 15 -17 15 -31 0 -18 -5
-25 -20 -25 -11 0 -20 5 -20 10 0 6 5 9 11 8 21 -5 20 19 -1 25 -11 3 -18 2
-16 -2 3 -4 -4 -12 -15 -19 -11 -7 -19 -8 -19 -2 0 5 5 10 10 10 6 0 10 5 10
11 0 8 -4 8 -12 2 -19 -15 -50 -12 -44 4 3 7 -1 13 -9 13 -17 0 -20 -16 -5
-25 14 -9 13 -46 -1 -42 -26 5 -18 -21 8 -28 22 -5 31 -2 42 14 13 21 38 31
26 11 -3 -5 -3 -15 1 -21 4 -8 9 -7 14 2 7 10 11 10 24 0 9 -8 17 -11 17 -7 1
3 2 10 3 15 2 14 16 26 16 14 0 -15 28 -24 35 -12 4 5 1 8 -7 7 -8 -2 -12 5
-11 19 2 13 -2 22 -8 20 -6 -1 -14 5 -17 13 -4 12 -1 12 19 -2 13 -9 23 -20
22 -25 -3 -14 40 -8 45 5 2 7 -6 12 -17 12 -12 0 -21 4 -21 9 0 5 -13 12 -29
16 -20 4 -31 14 -35 31 -8 31 -26 31 -55 0z m-25 -93 c-3 -8 -6 -17 -6 -19 0
-3 -4 -2 -10 1 -17 11 -12 45 6 38 8 -3 13 -12 10 -20z"/>
<path d="M5735 5010 c3 -5 14 -10 23 -10 15 0 15 2 2 10 -20 13 -33 13 -25 0z"/>
<path d="M5596 4994 c-8 -22 -8 -24 6 -24 6 0 8 3 5 7 -4 3 -2 12 4 20 7 8 8
13 1 13 -5 0 -13 -7 -16 -16z"/>
<path d="M5695 4980 c-3 -5 1 -10 9 -10 9 0 16 5 16 10 0 6 -4 10 -9 10 -6 0
-13 -4 -16 -10z"/>
<path d="M5748 4982 c-10 -2 -18 -10 -18 -17 0 -7 -6 -15 -12 -18 -7 -3 -3 -4
9 -4 12 1 20 4 17 8 -2 4 4 12 13 18 21 11 15 19 -9 13z"/>
<path d="M5530 4810 c0 -5 5 -10 10 -10 6 0 10 5 10 10 0 6 -4 10 -10 10 -5 0
-10 -4 -10 -10z"/>
<path d="M4934 4635 c-4 -8 -13 -15 -21 -15 -8 0 -12 4 -9 9 4 5 -3 7 -14 4
-19 -5 -20 -6 -3 -19 26 -19 39 -17 57 11 9 14 12 25 6 25 -6 0 -13 -7 -16
-15z"/>
<path d="M4375 6270 c-17 -5 -45 -24 -63 -41 -83 -81 -3 -229 175 -321 87 -46
164 -62 256 -53 75 7 174 45 184 71 14 38 -118 185 -235 261 -102 66 -247 104
-317 83z"/>
<path d="M4911 5897 c-6 -8 -8 -17 -4 -20 11 -12 21 -7 26 13 6 23 -5 26 -22
7z"/>
<path d="M6890 6148 c-25 -6 -40 -13 -33 -15 6 -2 29 0 50 6 42 12 157 14 215
5 34 -6 36 -8 27 -28 -9 -18 -8 -19 3 -4 15 18 68 14 64 -6 -2 -6 -1 -8 1 -3
9 14 35 7 29 -8 -3 -8 -1 -15 4 -15 6 0 10 5 10 12 0 6 9 3 20 -7 12 -11 20
-13 20 -6 0 15 -67 45 -145 66 -66 17 -196 18 -265 3z"/>
<path d="M6995 6130 c3 -5 8 -10 11 -10 2 0 4 5 4 10 0 6 -5 10 -11 10 -5 0
-7 -4 -4 -10z"/>
<path d="M6935 6095 l-40 -13 45 5 c25 4 56 10 70 14 24 7 24 7 -5 7 -16 0
-48 -6 -70 -13z"/>
<path d="M7068 6098 c6 -6 18 -8 28 -6 14 3 12 5 -9 10 -19 3 -25 2 -19 -4z"/>
<path d="M6730 6080 c-8 -5 -12 -11 -9 -14 2 -3 11 -1 19 4 8 5 12 11 9 14 -2
3 -11 1 -19 -4z"/>
<path d="M6830 6081 c0 -10 30 -24 37 -17 3 2 -5 9 -16 16 -12 6 -21 7 -21 1z"/>
<path d="M7165 6080 c-3 -5 -1 -10 4 -10 6 0 11 5 11 10 0 6 -2 10 -4 10 -3 0
-8 -4 -11 -10z"/>
<path d="M6888 6057 c-89 -33 -124 -55 -190 -125 -97 -101 -133 -200 -126
-347 3 -82 8 -101 40 -167 47 -93 134 -185 214 -224 56 -27 66 -29 185 -29
125 0 125 0 201 38 169 83 284 284 263 456 -21 166 -127 316 -270 382 -59 27
-84 33 -160 36 -76 3 -100 0 -157 -20z"/>
<path d="M7316 6067 c3 -10 9 -15 12 -12 3 3 0 11 -7 18 -10 9 -11 8 -5 -6z"/>
<path d="M7200 6060 c8 -5 20 -10 25 -10 6 0 3 5 -5 10 -8 5 -19 10 -25 10 -5
0 -3 -5 5 -10z"/>
<path d="M6815 6050 c-3 -6 1 -7 9 -4 18 7 21 14 7 14 -6 0 -13 -4 -16 -10z"/>
<path d="M6754 6012 c-21 -16 -54 -44 -73 -63 -19 -19 -39 -33 -44 -31 -4 1
-6 -2 -2 -8 3 -5 1 -10 -6 -10 -7 0 -9 -3 -6 -7 4 -3 35 20 69 53 35 33 74 67
88 76 14 9 22 17 19 17 -3 1 -24 -12 -45 -27z"/>
<path d="M7411 5993 c19 -23 36 -39 38 -37 3 3 -12 21 -34 42 l-38 37 34 -42z"/>
<path d="M7347 5956 c64 -71 69 -75 50 -43 -10 15 -13 27 -7 27 5 0 10 5 10
12 0 9 -3 9 -11 1 -8 -8 -19 -4 -40 14 -16 14 -27 29 -24 33 2 4 -2 7 -10 7
-9 0 5 -22 32 -51z"/>
<path d="M6571 5921 c-9 -17 -8 -18 11 -13 13 3 17 7 10 10 -7 2 -10 8 -6 13
3 5 3 9 0 9 -3 0 -10 -9 -15 -19z"/>
<path d="M7480 5901 c0 -6 4 -13 10 -16 6 -3 7 1 4 9 -7 18 -14 21 -14 7z"/>
<path d="M6606 5865 c-14 -10 -17 -18 -10 -25 7 -7 14 -3 22 15 13 29 13 29
-12 10z"/>
<path d="M7460 5870 c-8 -5 -12 -11 -9 -14 2 -3 11 -1 19 4 8 5 12 11 9 14 -2
3 -11 1 -19 -4z"/>
<path d="M6536 5853 c-6 -14 -5 -15 5 -6 7 7 10 15 7 18 -3 3 -9 -2 -12 -12z"/>
<path d="M7436 5837 c3 -10 9 -15 12 -12 3 3 0 11 -7 18 -10 9 -11 8 -5 -6z"/>
<path d="M7511 5840 c0 -8 6 -26 15 -40 l15 -25 -7 25 c-3 14 -10 32 -15 40
-7 13 -8 13 -8 0z"/>
<path d="M7467 5819 c-13 -15 -15 -24 -7 -39 6 -11 13 -20 16 -20 3 0 3 4 0 9
-4 5 -1 22 4 37 13 34 9 39 -13 13z"/>
<path d="M6570 5790 c-13 -8 -12 -10 3 -10 9 0 17 5 17 10 0 12 -1 12 -20 0z"/>
<path d="M7547 5725 c3 -27 7 -52 9 -54 7 -8 2 54 -6 79 -6 17 -7 9 -3 -25z"/>
<path d="M6496 5723 c-7 -48 -8 -108 0 -101 3 3 5 24 6 47 0 23 4 44 9 47 5 3
6 10 3 16 -4 6 0 14 7 19 11 7 11 9 -2 9 -11 0 -18 -12 -23 -37z"/>
<path d="M6556 5747 c3 -10 9 -15 12 -12 3 3 0 11 -7 18 -10 9 -11 8 -5 -6z"/>
<path d="M7475 5734 c4 -10 10 -58 13 -106 2 -49 8 -88 13 -88 5 0 6 7 3 15
-4 10 0 15 16 15 11 0 19 4 15 10 -3 5 -12 7 -19 4 -10 -4 -14 6 -14 38 1 56
-12 117 -25 125 -7 4 -8 0 -2 -13z"/>
<path d="M6551 5694 c0 -11 3 -14 6 -6 3 7 2 16 -1 19 -3 4 -6 -2 -5 -13z"/>
<path d="M6530 5632 c5 -9 12 -39 15 -65 9 -67 15 -54 8 15 -3 34 -11 59 -19
62 -10 4 -11 1 -4 -12z"/>
<path d="M7523 5628 c1 -16 5 -28 9 -28 10 0 9 9 -2 35 -8 17 -8 16 -7 -7z"/>
<path d="M7548 5590 c-2 -22 0 -40 4 -40 5 0 8 18 8 40 0 22 -2 40 -4 40 -2 0
-6 -18 -8 -40z"/>
<path d="M6492 5580 c0 -19 2 -27 5 -17 2 9 2 25 0 35 -3 9 -5 1 -5 -18z"/>
<path d="M6530 5529 c0 -6 -7 -9 -15 -5 -9 3 -15 0 -15 -8 0 -20 34 -13 38 7
2 10 1 17 -2 17 -3 0 -6 -5 -6 -11z"/>
<path d="M7463 5468 c-13 -37 -16 -55 -8 -44 8 10 16 23 17 28 2 5 11 10 20
12 23 3 35 16 15 16 -9 0 -17 10 -19 26 -2 20 -8 12 -25 -38z"/>
<path d="M7536 5515 c4 -8 1 -15 -5 -15 -6 0 -8 -7 -5 -15 4 -8 1 -22 -6 -30
-8 -10 -9 -15 -2 -15 6 0 16 17 21 38 13 46 13 52 1 52 -5 0 -7 -7 -4 -15z"/>
<path d="M6511 5480 c0 -8 4 -22 9 -30 12 -18 12 -2 0 25 -6 13 -9 15 -9 5z"/>
<path d="M7500 5421 c0 -5 -10 -11 -22 -13 -12 -2 -23 -9 -24 -16 -1 -7 0 -8
3 -2 2 5 13 10 24 10 16 0 17 -3 8 -19 -7 -11 -19 -16 -31 -13 -10 2 -18 -1
-18 -7 0 -5 7 -8 16 -4 12 4 15 2 12 -8 -3 -8 -11 -13 -17 -11 -6 1 -10 -1 -9
-5 2 -14 -14 -43 -22 -38 -4 3 -13 -2 -19 -9 -9 -11 -9 -14 1 -12 25 3 40 19
79 79 40 62 46 77 29 77 -5 0 -10 -4 -10 -9z"/>
<path d="M6531 5414 c-1 -5 5 -18 12 -28 12 -17 14 -17 20 -2 4 10 1 16 -7 16
-8 0 -17 6 -19 13 -3 6 -6 7 -6 1z"/>
<path d="M6606 5375 c14 -19 28 -35 30 -35 2 0 -6 16 -17 35 -12 19 -25 35
-30 35 -6 0 2 -16 17 -35z"/>
<path d="M7420 5380 c-6 -11 -8 -20 -6 -20 3 0 10 9 16 20 6 11 8 20 6 20 -3
0 -10 -9 -16 -20z"/>
<path d="M6575 5335 c25 -45 60 -86 76 -88 8 -2 19 -6 26 -10 6 -4 14 -3 18 3
4 7 12 7 26 0 28 -16 24 -9 -28 40 l-46 45 29 -39 c24 -34 26 -39 9 -32 -11 5
-28 8 -37 8 -9 0 -19 6 -22 14 -3 8 -1 14 5 14 6 0 7 5 4 11 -4 6 -13 8 -21 5
-9 -4 -14 2 -14 16 0 12 -3 18 -7 15 -3 -4 -12 1 -20 11 -9 10 -8 6 2 -13z"/>
<path d="M7391 5336 c-9 -11 -9 -16 1 -22 7 -4 10 -4 6 1 -4 4 -3 14 3 22 6 7
9 13 6 13 -2 0 -10 -6 -16 -14z"/>
<path d="M7349 5283 c-13 -15 -16 -22 -7 -14 9 7 21 10 25 8 5 -3 9 3 9 14 0
10 -1 19 -1 19 -1 0 -12 -12 -26 -27z"/>
<path d="M7290 5230 c-14 -10 -46 -29 -72 -41 -43 -20 -71 -49 -48 -49 6 0 10
6 10 13 0 6 5 4 11 -5 11 -19 39 -25 39 -8 0 5 -7 7 -15 4 -9 -4 -15 0 -15 9
0 8 6 17 14 20 17 7 39 -16 28 -28 -4 -4 8 0 26 9 17 9 32 19 32 22 0 2 -9 0
-20 -6 -16 -9 -22 -8 -27 6 -3 10 0 20 9 25 20 11 64 48 58 48 -3 1 -16 -8
-30 -19z"/>
<path d="M7370 5235 c-10 -12 -16 -13 -26 -4 -8 6 -14 9 -14 6 0 -2 6 -10 13
-16 11 -8 18 -6 32 9 10 11 16 20 13 20 -3 0 -11 -7 -18 -15z"/>
<path d="M6691 5204 c13 -16 108 -74 121 -74 4 0 5 6 2 14 -3 8 -12 12 -20 9
-7 -3 -17 2 -20 11 -3 9 -10 13 -16 10 -5 -3 -12 4 -15 16 -4 14 -8 18 -13 10
-5 -8 -11 -7 -23 4 -20 21 -33 21 -16 0z"/>
<path d="M6815 5175 c11 -8 25 -18 30 -22 6 -5 18 -9 28 -9 9 -1 25 -2 36 -3
10 0 21 -10 24 -21 5 -18 13 -20 94 -19 54 0 80 3 68 8 -11 5 -25 6 -32 4 -7
-3 -17 -2 -24 2 -16 11 9 25 45 25 16 0 27 3 24 6 -4 3 -33 2 -65 -2 -32 -4
-52 -9 -45 -11 21 -8 2 -23 -28 -23 -23 0 -28 4 -25 20 3 15 -2 20 -18 20 -12
1 -47 9 -77 20 -35 12 -48 14 -35 5z"/>
<path d="M7127 5146 c-4 -10 -1 -13 9 -9 7 3 14 9 14 14 0 14 -17 10 -23 -5z"/>
<path d="M6845 5120 c11 -5 31 -9 45 -9 23 0 23 1 5 9 -11 5 -31 9 -45 9 -23
0 -23 -1 -5 -9z"/>
<path d="M7135 5120 c-18 -8 -17 -9 7 -9 15 -1 30 4 33 9 7 12 -12 12 -40 0z"/>
<path d="M4965 5510 c-3 -5 -1 -10 4 -10 6 0 11 5 11 10 0 6 -2 10 -4 10 -3 0
-8 -4 -11 -10z"/>
<path d="M4980 5459 c0 -5 5 -7 10 -4 6 3 10 8 10 11 0 2 -4 4 -10 4 -5 0 -10
-5 -10 -11z"/>
<path d="M4848 5428 c2 -16 9 -31 14 -34 6 -4 7 2 3 16 -5 15 -4 20 4 16 6 -4
11 -3 11 2 0 5 7 9 15 9 10 0 12 -4 4 -13 -7 -8 -6 -13 3 -17 10 -4 11 -7 1
-18 -7 -7 -13 -18 -13 -23 0 -6 5 -4 10 4 9 13 11 13 19 0 6 -8 13 -11 18 -7
4 5 2 12 -5 16 -7 4 -14 21 -15 37 -2 25 -7 30 -38 34 -34 6 -35 5 -31 -22z"/>
<path d="M4820 5400 c0 -5 5 -10 10 -10 6 0 10 5 10 10 0 6 -4 10 -10 10 -5 0
-10 -4 -10 -10z"/>
<path d="M4560 5164 c0 -8 5 -12 10 -9 6 3 10 10 10 16 0 5 -4 9 -10 9 -5 0
-10 -7 -10 -16z"/>
<path d="M6550 5202 c0 -5 15 -7 33 -6 43 4 57 -6 67 -47 7 -29 8 -30 9 -9 2
43 -25 70 -70 70 -21 0 -39 -4 -39 -8z"/>
<path d="M6502 5184 c-19 -13 -21 -18 -10 -31 10 -12 9 -17 -5 -25 -10 -5 -15
-13 -12 -18 8 -13 -9 -20 -25 -10 -12 7 -11 13 5 31 11 12 14 19 8 15 -7 -4
-80 -90 -162 -191 -99 -120 -149 -189 -146 -202 2 -10 10 -31 19 -48 14 -27
16 -28 16 -7 0 22 1 22 25 6 24 -15 25 -15 19 0 -8 20 -44 42 -44 26 0 -5 -4
-10 -10 -10 -18 0 -11 16 13 29 13 7 23 22 24 37 1 19 -2 23 -10 15 -19 -19
-31 -12 -13 8 17 18 69 22 84 6 4 -4 -5 -6 -20 -3 -22 4 -26 1 -26 -16 1 -12
8 -29 16 -38 10 -12 11 -18 4 -18 -7 0 -12 5 -12 10 0 6 -4 10 -9 10 -14 0 -1
-38 14 -44 8 -3 11 -13 8 -25 -4 -17 -9 -19 -24 -10 -10 5 -20 6 -20 2 -1 -4
-2 -15 -3 -23 0 -8 -10 -16 -21 -17 l-20 -3 20 10 c20 9 19 9 -2 16 -13 3 -20
11 -17 16 3 5 -3 12 -14 15 -20 5 -39 33 -23 33 5 0 12 8 15 18 3 9 -12 -3
-34 -28 -25 -28 -38 -51 -34 -60 4 -8 7 -22 7 -30 0 -8 7 -21 16 -27 14 -12
14 -14 -3 -27 -10 -8 -16 -20 -14 -27 3 -8 9 -7 20 5 9 9 23 16 30 16 10 0 9
-3 -2 -10 -8 -5 -10 -10 -4 -10 5 0 20 9 33 21 17 16 25 18 36 9 15 -12 55 -5
55 10 0 4 -7 11 -16 14 -8 3 -13 2 -10 -3 4 -5 -3 -7 -14 -4 -11 3 -23 10 -27
16 -4 6 0 8 10 4 9 -3 19 -2 22 3 3 5 13 6 23 3 14 -5 15 -3 5 8 -15 15 -17
29 -4 29 5 0 13 -9 16 -20 6 -18 8 -18 21 -5 8 8 22 11 31 8 14 -5 12 -10 -9
-28 -14 -12 -31 -33 -37 -46 -8 -16 0 -11 24 16 46 51 64 80 42 72 -11 -4 -13
0 -10 16 l5 22 -16 -22 c-20 -26 -46 -30 -46 -7 0 11 6 14 21 9 15 -5 20 -3
17 6 -2 7 6 23 19 37 31 33 29 42 -7 38 -16 -2 -30 1 -30 6 0 6 9 8 20 5 11
-3 23 -1 26 4 3 5 17 9 32 8 23 -1 24 -2 7 -7 -11 -4 -21 -15 -21 -25 -1 -10
3 -16 10 -14 6 3 10 9 9 15 -2 6 4 9 12 6 18 -7 20 -21 3 -26 -9 -3 -9 -6 -1
-11 6 -4 25 10 43 33 17 22 28 40 23 40 -4 0 -3 4 4 8 21 13 4 52 -23 52 -13
0 -24 5 -24 11 0 6 7 9 15 6 8 -4 17 -2 20 3 3 4 -1 10 -7 13 -19 6 -49 -4
-42 -14 3 -5 2 -9 -1 -9 -12 0 -86 82 -80 89 4 3 11 -2 16 -12 8 -14 14 -15
30 -6 27 14 37 3 21 -21 -11 -19 -9 -20 30 -18 l43 1 -30 13 -30 13 33 1 c17
0 32 -3 33 -7 1 -5 2 -19 3 -33 2 -14 7 -34 13 -44 9 -16 11 -16 23 -1 11 13
10 15 -1 10 -11 -4 -14 2 -13 22 1 16 3 30 3 32 1 2 8 -2 16 -9 8 -7 12 -17 9
-24 -9 -18 69 68 114 126 22 29 44 67 47 83 7 29 7 29 -8 10 -9 -11 -17 -15
-17 -10 0 12 -60 18 -60 6 0 -11 56 -31 64 -24 3 4 6 2 6 -4 0 -16 -38 -46
-50 -38 -14 9 -2 27 13 19 7 -3 3 2 -7 10 -25 20 -66 21 -66 2 0 -17 -27 -29
-35 -16 -4 6 0 10 8 10 20 0 28 25 14 40 -9 10 -7 11 11 5 16 -5 22 -2 23 9 2
24 4 30 12 43 4 6 3 14 -3 18 -5 3 -10 -1 -10 -9 0 -9 -4 -16 -10 -16 -5 0
-10 6 -10 13 0 8 -4 7 -10 -3 -5 -8 -10 -13 -11 -10 0 3 -2 14 -4 25 -3 11 3
26 12 33 25 18 1 15 -25 -4z m48 -74 c0 -8 -52 -21 -59 -15 -1 2 0 8 3 13 7
11 56 13 56 2z m-40 -51 c0 -5 -4 -7 -10 -4 -5 3 -10 1 -10 -5 0 -6 -6 -8 -12
-4 -7 4 -4 -2 6 -14 11 -12 14 -22 8 -22 -7 0 -12 4 -12 9 0 16 -34 18 -57 3
-21 -13 -23 -12 -23 2 0 10 -5 14 -10 11 -6 -4 -7 -11 -4 -17 4 -7 2 -8 -4 -4
-9 5 -8 12 1 27 6 10 13 15 15 9 5 -13 32 -13 32 1 0 5 4 8 8 5 4 -2 14 -1 22
5 20 12 50 11 50 -2z m-55 -48 c-10 -17 26 -29 51 -17 13 6 24 15 24 19 0 5 4
6 9 2 5 -3 -2 -17 -16 -31 -23 -23 -29 -25 -46 -15 -13 8 -17 9 -12 1 4 -6 2
-17 -4 -24 -14 -17 -58 -18 -65 -1 -3 8 6 11 30 9 19 -1 34 2 34 7 0 5 -4 9
-10 9 -5 0 -7 7 -4 15 4 8 1 15 -6 15 -6 0 -8 5 -5 10 3 6 11 10 16 10 6 0 8
-4 4 -9z m125 -1 c0 -5 -5 -10 -11 -10 -5 0 -7 5 -4 10 3 6 8 10 11 10 2 0 4
-4 4 -10z m-160 -31 c0 -4 -7 -6 -15 -3 -8 4 -15 10 -15 15 0 4 7 6 15 3 8 -4
15 -10 15 -15z m180 11 c0 -5 -3 -10 -8 -10 -4 0 -12 -10 -17 -22 -6 -13 -19
-27 -31 -33 -11 -6 -19 -16 -16 -23 2 -7 -2 -10 -10 -7 -8 3 -14 14 -14 24 0
13 7 17 23 15 25 -2 38 10 27 27 -4 8 -9 7 -15 -2 -4 -7 -11 -10 -15 -6 -8 8
15 39 25 33 4 -3 13 -1 21 5 20 12 30 11 30 -1z m-220 -8 c0 -4 -9 -13 -20
-20 -23 -14 -26 -8 -7 13 13 16 27 19 27 7z m110 -57 c0 -8 -4 -15 -10 -15 -5
0 -10 7 -10 15 0 8 5 15 10 15 6 0 10 -7 10 -15z m-204 -17 c-17 -9 -15 -12
15 -25 55 -24 63 -29 67 -43 3 -9 -2 -9 -18 3 -17 12 -28 13 -42 6 -15 -8 -18
-6 -18 11 0 11 -3 19 -7 19 -31 -5 -35 3 -13 26 13 14 26 22 29 19 3 -3 -3
-10 -13 -16z m-6 -59 c0 -4 -4 -11 -10 -14 -5 -3 -10 -1 -10 5 0 6 -4 8 -10 5
-5 -3 -10 0 -10 8 0 10 7 13 20 10 11 -3 20 -9 20 -14z m90 -39 c14 -10 19
-19 13 -20 -7 0 -13 5 -13 12 0 6 -3 8 -6 5 -10 -10 -44 12 -44 29 0 11 3 12
13 4 6 -5 23 -19 37 -30z m66 -3 c1 -31 -30 -65 -41 -47 -4 7 -1 16 6 21 8 5
10 9 4 9 -5 0 -3 5 5 10 13 8 12 10 -2 10 -10 0 -18 6 -18 13 0 8 10 13 23 12
16 -1 22 -8 23 -28z m-123 -10 c3 -7 -3 -13 -14 -13 -13 0 -15 3 -7 13 6 7 12
13 13 13 2 0 5 -6 8 -13z m-118 -27 c-3 -5 -12 -10 -18 -10 -7 0 -6 4 3 10 19
12 23 12 15 0z m98 -55 c-21 -28 -30 -31 -30 -10 0 8 7 15 16 15 14 0 14 2 1
10 -12 8 -11 10 8 10 23 0 23 0 5 -25z m-135 -72 c16 -29 16 -28 -14 -48 -25
-16 -25 -16 -15 4 16 28 14 33 -9 21 -12 -7 -20 -7 -20 -1 0 5 9 13 20 16 20
6 25 16 14 28 -4 3 -14 -1 -23 -10 -15 -16 -16 -15 -19 6 -2 12 2 29 8 36 10
13 15 11 29 -8 9 -12 22 -32 29 -44z"/>
<path d="M6610 5170 c0 -5 4 -10 9 -10 4 0 8 -8 8 -17 0 -33 3 -43 13 -43 5 0
8 6 6 13 -3 6 -7 24 -10 40 -6 25 -26 39 -26 17z"/>
<path d="M6595 5131 c-3 -5 -1 -12 5 -16 5 -3 10 1 10 9 0 18 -6 21 -15 7z"/>
<path d="M6354 4697 c1 -20 4 -23 14 -15 7 6 9 14 5 17 -4 4 -11 10 -14 14 -4
5 -6 -3 -5 -16z"/>
<path d="M6057 4653 c-4 -3 -7 -27 -7 -51 0 -57 8 -51 14 11 4 49 4 51 -7 40z"/>
<path d="M6163 4546 c-26 -15 -21 -26 8 -19 10 3 19 12 19 19 0 8 -1 14 -2 13
-2 -1 -13 -7 -25 -13z"/>
<path d="M6220 4539 c11 -19 10 -21 -4 -16 -9 4 -15 2 -13 -5 1 -7 -2 -13 -8
-13 -5 -1 -27 -5 -48 -9 -37 -8 -73 6 -62 24 3 4 -2 10 -10 13 -12 5 -12 2 -3
-19 19 -42 91 -44 147 -5 37 26 37 27 10 41 -19 11 -20 10 -9 -11z"/>
<path d="M6110 4519 c0 -5 5 -7 10 -4 6 3 10 8 10 11 0 2 -4 4 -10 4 -5 0 -10
-5 -10 -11z"/>
<path d="M4695 4950 c-3 -5 1 -10 10 -10 9 0 13 5 10 10 -3 6 -8 10 -10 10 -2
0 -7 -4 -10 -10z"/>
<path d="M5310 4796 c0 -9 7 -16 16 -16 9 0 14 5 12 12 -6 18 -28 21 -28 4z"/>
<path d="M5375 4750 c-10 -16 4 -68 20 -74 10 -3 11 2 6 22 -5 15 -6 32 -4 39
5 15 -14 26 -22 13z"/>
<path d="M3155 3756 c-104 -46 -151 -228 -111 -426 21 -100 45 -151 88 -183
63 -47 161 -62 216 -33 78 41 111 114 119 261 7 119 -19 245 -65 310 -51 74
-166 107 -247 71z"/>
<path d="M4925 3761 c-57 -25 -89 -81 -100 -173 l-7 -58 171 0 171 0 0 60 c0
117 -48 172 -155 177 -33 2 -69 -1 -80 -6z"/>
<path d="M7554 3756 c-49 -21 -83 -65 -104 -135 -37 -117 -21 -320 33 -416 59
-104 213 -139 298 -67 53 44 72 101 77 230 9 214 -40 341 -150 387 -45 18
-112 19 -154 1z"/>
</g>
</svg>
